<?xml version="1.0" encoding="UTF-8" standalone="no"?>
<!DOCTYPE svg PUBLIC "-//W3C//DTD SVG 1.1//EN"
 "http://www.w3.org/Graphics/SVG/1.1/DTD/svg11.dtd">
<!-- Generated by graphviz version 2.28.0 (20161014.1527)
 -->
<!-- Title: flowchart Pages: 1 -->
<svg width="427pt" height="512pt"
 viewBox="0.00 0.00 427.00 512.00" xmlns="http://www.w3.org/2000/svg" xmlns:xlink="http://www.w3.org/1999/xlink">
<g id="graph1" class="graph" transform="scale(1 1) rotate(0) translate(4 508)">
<title>flowchart</title>
<polygon fill="white" stroke="white" points="-4,5 -4,-508 424,-508 424,5 -4,5"/>
<!-- p0 -->
<g id="node1" class="node"><title>p0</title>
<ellipse fill="black" stroke="black" cx="209" cy="-500" rx="3.6" ry="3.6"/>
</g>
<!-- p1 -->
<g id="node2" class="node"><title>p1</title>
<ellipse fill="none" stroke="black" cx="209" cy="-426" rx="42.3701" ry="18"/>
<text text-anchor="middle" x="209" y="-422.3" font-family="Times,serif" font-size="14.00">fetchRef</text>
</g>
<!-- p0&#45;&gt;p1 -->
<g id="edge2" class="edge"><title>p0&#45;&gt;p1</title>
<path fill="none" stroke="black" d="M209,-496.265C209,-489.354 209,-470.578 209,-454.316"/>
<polygon fill="black" stroke="black" points="212.5,-454.143 209,-444.143 205.5,-454.143 212.5,-454.143"/>
<text text-anchor="middle" x="217" y="-466.3" font-family="Times,serif" font-size="14.00">url</text>
</g>
<!-- p2 -->
<g id="node4" class="node"><title>p2</title>
<ellipse fill="none" stroke="black" cx="209" cy="-338" rx="69.3156" ry="18"/>
<text text-anchor="middle" x="209" y="-334.3" font-family="Times,serif" font-size="14.00">kangaSimReads</text>
</g>
<!-- p1&#45;&gt;p2 -->
<g id="edge4" class="edge"><title>p1&#45;&gt;p2</title>
<path fill="none" stroke="black" d="M209,-407.597C209,-395.746 209,-379.817 209,-366.292"/>
<polygon fill="black" stroke="black" points="212.5,-366.084 209,-356.084 205.5,-366.084 212.5,-366.084"/>
<text text-anchor="middle" x="220" y="-378.3" font-family="Times,serif" font-size="14.00">refs</text>
</g>
<!-- p7 -->
<g id="node16" class="node"><title>p7</title>
<ellipse fill="none" stroke="black" cx="63" cy="-338" rx="52.4675" ry="18"/>
<text text-anchor="middle" x="63" y="-334.3" font-family="Times,serif" font-size="14.00">hisat2Index</text>
</g>
<!-- p1&#45;&gt;p7 -->
<g id="edge18" class="edge"><title>p1&#45;&gt;p7</title>
<path fill="none" stroke="black" d="M185.218,-410.991C161.261,-396.88 124.067,-374.971 96.9998,-359.027"/>
<polygon fill="black" stroke="black" points="98.6352,-355.929 88.2425,-353.869 95.0824,-361.96 98.6352,-355.929"/>
<text text-anchor="middle" x="161" y="-378.3" font-family="Times,serif" font-size="14.00">refs</text>
</g>
<!-- p11 -->
<g id="node26" class="node"><title>p11</title>
<ellipse fill="none" stroke="black" cx="357" cy="-338" rx="53.4184" ry="18"/>
<text text-anchor="middle" x="357" y="-334.3" font-family="Times,serif" font-size="14.00">kangaIndex</text>
</g>
<!-- p1&#45;&gt;p11 -->
<g id="edge30" class="edge"><title>p1&#45;&gt;p11</title>
<path fill="none" stroke="black" d="M233.108,-410.991C257.393,-396.88 295.096,-374.971 322.534,-359.027"/>
<polygon fill="black" stroke="black" points="324.524,-361.919 331.412,-353.869 321.007,-355.867 324.524,-361.919"/>
<text text-anchor="middle" x="308" y="-378.3" font-family="Times,serif" font-size="14.00">refs</text>
</g>
<!-- p3 -->
<g id="node6" class="node"><title>p3</title>
<ellipse fill="none" stroke="black" cx="206" cy="-250" rx="83.2892" ry="18"/>
<text text-anchor="middle" x="206" y="-246.3" font-family="Times,serif" font-size="14.00">fasta2mockFASTQ</text>
</g>
<!-- p2&#45;&gt;p3 -->
<g id="edge6" class="edge"><title>p2&#45;&gt;p3</title>
<path fill="none" stroke="black" d="M207.242,-319.929C206.735,-314.234 206.25,-307.849 206,-302 205.671,-294.304 205.565,-285.949 205.57,-278.271"/>
<polygon fill="black" stroke="black" points="209.071,-278.03 205.637,-268.008 202.071,-277.985 209.071,-278.03"/>
<text text-anchor="middle" x="214" y="-290.3" font-family="Times,serif" font-size="14.00">R1</text>
</g>
<!-- p2&#45;&gt;p3 -->
<g id="edge8" class="edge"><title>p2&#45;&gt;p3</title>
<path fill="none" stroke="black" d="M217.366,-320.071C221.238,-310.178 224.488,-297.428 222,-286 221.374,-283.123 220.489,-280.2 219.453,-277.332"/>
<polygon fill="black" stroke="black" points="222.607,-275.801 215.507,-267.936 216.153,-278.512 222.607,-275.801"/>
<text text-anchor="middle" x="231" y="-290.3" font-family="Times,serif" font-size="14.00">R2</text>
</g>
<!-- p8 -->
<g id="node18" class="node"><title>p8</title>
<ellipse fill="none" stroke="black" cx="52" cy="-250" rx="52.4675" ry="18"/>
<text text-anchor="middle" x="52" y="-246.3" font-family="Times,serif" font-size="14.00">hisat2Align</text>
</g>
<!-- p2&#45;&gt;p8 -->
<g id="edge22" class="edge"><title>p2&#45;&gt;p8</title>
<path fill="none" stroke="black" d="M191.012,-320.453C178.52,-309.595 161.108,-295.669 144,-286 130.087,-278.137 114.063,-271.348 99.3253,-265.898"/>
<polygon fill="black" stroke="black" points="100.456,-262.586 89.8619,-262.512 98.0982,-269.176 100.456,-262.586"/>
<text text-anchor="middle" x="175" y="-290.3" font-family="Times,serif" font-size="14.00">R1</text>
</g>
<!-- p2&#45;&gt;p8 -->
<g id="edge24" class="edge"><title>p2&#45;&gt;p8</title>
<path fill="none" stroke="black" d="M168.409,-323.239C153.919,-317.571 137.781,-310.36 124,-302 114.561,-296.274 113.843,-292.609 105,-286 98.541,-281.173 91.4475,-276.248 84.6091,-271.675"/>
<polygon fill="black" stroke="black" points="86.4269,-268.681 76.1504,-266.104 82.5767,-274.527 86.4269,-268.681"/>
<text text-anchor="middle" x="132" y="-290.3" font-family="Times,serif" font-size="14.00">R2</text>
</g>
<!-- p12 -->
<g id="node28" class="node"><title>p12</title>
<ellipse fill="none" stroke="black" cx="361" cy="-250" rx="53.4184" ry="18"/>
<text text-anchor="middle" x="361" y="-246.3" font-family="Times,serif" font-size="14.00">kangaAlign</text>
</g>
<!-- p2&#45;&gt;p12 -->
<g id="edge34" class="edge"><title>p2&#45;&gt;p12</title>
<path fill="none" stroke="black" d="M230.682,-320.802C245.33,-310.228 265.33,-296.49 284,-286 295.002,-279.819 307.294,-273.843 318.771,-268.632"/>
<polygon fill="black" stroke="black" points="320.461,-271.711 328.173,-264.447 317.614,-265.316 320.461,-271.711"/>
<text text-anchor="middle" x="292" y="-290.3" font-family="Times,serif" font-size="14.00">R1</text>
</g>
<!-- p2&#45;&gt;p12 -->
<g id="edge36" class="edge"><title>p2&#45;&gt;p12</title>
<path fill="none" stroke="black" d="M252.017,-323.745C267.649,-318.089 285.119,-310.754 300,-302 313.084,-294.303 326.183,-283.808 336.87,-274.339"/>
<polygon fill="black" stroke="black" points="339.495,-276.682 344.532,-267.361 334.782,-271.507 339.495,-276.682"/>
<text text-anchor="middle" x="330" y="-290.3" font-family="Times,serif" font-size="14.00">R2</text>
</g>
<!-- p4 -->
<g id="node9" class="node"><title>p4</title>
<ellipse fill="none" stroke="black" cx="184" cy="-162" rx="36.096" ry="18"/>
<text text-anchor="middle" x="184" y="-158.3" font-family="Times,serif" font-size="14.00">fastQC</text>
</g>
<!-- p3&#45;&gt;p4 -->
<g id="edge10" class="edge"><title>p3&#45;&gt;p4</title>
<path fill="none" stroke="black" d="M163.84,-234.284C155.15,-229.233 147.102,-222.606 142,-214 135.363,-202.806 142.859,-191.516 153.265,-182.414"/>
<polygon fill="black" stroke="black" points="155.478,-185.127 161.195,-176.207 151.163,-179.615 155.478,-185.127"/>
<text text-anchor="middle" x="168.5" y="-202.3" font-family="Times,serif" font-size="14.00">FASTQ1</text>
</g>
<!-- p3&#45;&gt;p4 -->
<g id="edge12" class="edge"><title>p3&#45;&gt;p4</title>
<path fill="none" stroke="black" d="M202.723,-231.907C200.713,-221.959 197.963,-209.209 195,-198 194.292,-195.321 193.507,-192.542 192.691,-189.775"/>
<polygon fill="black" stroke="black" points="195.97,-188.53 189.688,-179.998 189.279,-190.585 195.97,-188.53"/>
<text text-anchor="middle" x="225.5" y="-202.3" font-family="Times,serif" font-size="14.00">FASTQ2</text>
</g>
<!-- p5 -->
<g id="node12" class="node"><title>p5</title>
<ellipse fill="none" stroke="black" cx="184" cy="-74" rx="42.3456" ry="18"/>
<text text-anchor="middle" x="184" y="-70.3" font-family="Times,serif" font-size="14.00">multiQC</text>
</g>
<!-- p4&#45;&gt;p5 -->
<g id="edge14" class="edge"><title>p4&#45;&gt;p5</title>
<path fill="none" stroke="black" d="M184,-143.597C184,-131.746 184,-115.817 184,-102.292"/>
<polygon fill="black" stroke="black" points="187.5,-102.084 184,-92.084 180.5,-102.084 187.5,-102.084"/>
<text text-anchor="middle" x="222.5" y="-114.3" font-family="Times,serif" font-size="14.00">fastqc_results</text>
</g>
<!-- p6 -->
<g id="node14" class="node"><title>p6</title>
<ellipse fill="black" stroke="black" cx="184" cy="-2" rx="1.8" ry="1.8"/>
</g>
<!-- p5&#45;&gt;p6 -->
<g id="edge16" class="edge"><title>p5&#45;&gt;p6</title>
<path fill="none" stroke="black" d="M184,-55.6966C184,-42.6347 184,-25.1104 184,-13.9338"/>
<polygon fill="black" stroke="black" points="187.5,-13.8073 184,-3.8073 180.5,-13.8073 187.5,-13.8073"/>
<text text-anchor="middle" x="226.5" y="-26.3" font-family="Times,serif" font-size="14.00">multiqc_report</text>
</g>
<!-- p7&#45;&gt;p8 -->
<g id="edge20" class="edge"><title>p7&#45;&gt;p8</title>
<path fill="none" stroke="black" d="M57.2191,-320.105C55.5317,-314.421 53.9003,-308 53,-302 51.8435,-294.293 51.3639,-285.858 51.2325,-278.107"/>
<polygon fill="black" stroke="black" points="54.7324,-278.095 51.2383,-268.093 47.7324,-278.09 54.7324,-278.095"/>
<text text-anchor="middle" x="79" y="-290.3" font-family="Times,serif" font-size="14.00">hisat2dbs</text>
</g>
<!-- p9 -->
<g id="node22" class="node"><title>p9</title>
<ellipse fill="none" stroke="black" cx="52" cy="-162" rx="45.244" ry="18"/>
<text text-anchor="middle" x="52" y="-158.3" font-family="Times,serif" font-size="14.00">sam2bam</text>
</g>
<!-- p8&#45;&gt;p9 -->
<g id="edge26" class="edge"><title>p8&#45;&gt;p9</title>
<path fill="none" stroke="black" d="M52,-231.597C52,-219.746 52,-203.817 52,-190.292"/>
<polygon fill="black" stroke="black" points="55.5001,-190.084 52,-180.084 48.5001,-190.084 55.5001,-190.084"/>
<text text-anchor="middle" x="63.5" y="-202.3" font-family="Times,serif" font-size="14.00">sam</text>
</g>
<!-- p10 -->
<g id="node24" class="node"><title>p10</title>
<ellipse fill="black" stroke="black" cx="52" cy="-74" rx="1.8" ry="1.8"/>
</g>
<!-- p9&#45;&gt;p10 -->
<g id="edge28" class="edge"><title>p9&#45;&gt;p10</title>
<path fill="none" stroke="black" d="M52,-143.597C52,-126.516 52,-100.965 52,-86.348"/>
<polygon fill="black" stroke="black" points="55.5001,-86.0951 52,-76.0952 48.5001,-86.0952 55.5001,-86.0951"/>
<text text-anchor="middle" x="64.5" y="-114.3" font-family="Times,serif" font-size="14.00">bam</text>
</g>
<!-- p11&#45;&gt;p12 -->
<g id="edge32" class="edge"><title>p11&#45;&gt;p12</title>
<path fill="none" stroke="black" d="M357.809,-319.597C358.361,-307.746 359.102,-291.817 359.731,-278.292"/>
<polygon fill="black" stroke="black" points="363.237,-278.236 360.205,-268.084 356.244,-277.911 363.237,-278.236"/>
<text text-anchor="middle" x="384.5" y="-290.3" font-family="Times,serif" font-size="14.00">kangadb</text>
</g>
<!-- p13 -->
<g id="node32" class="node"><title>p13</title>
<ellipse fill="none" stroke="black" cx="361" cy="-162" rx="57.2688" ry="18"/>
<text text-anchor="middle" x="361" y="-158.3" font-family="Times,serif" font-size="14.00">bamReIndex</text>
</g>
<!-- p12&#45;&gt;p13 -->
<g id="edge38" class="edge"><title>p12&#45;&gt;p13</title>
<path fill="none" stroke="black" d="M361,-231.597C361,-219.746 361,-203.817 361,-190.292"/>
<polygon fill="black" stroke="black" points="364.5,-190.084 361,-180.084 357.5,-190.084 364.5,-190.084"/>
<text text-anchor="middle" x="376" y="-202.3" font-family="Times,serif" font-size="14.00">bams</text>
</g>
</g>
</svg>
