<?xml version="1.0" encoding="UTF-8" standalone="no"?>
<!DOCTYPE svg PUBLIC "-//W3C//DTD SVG 1.1//EN"
 "http://www.w3.org/Graphics/SVG/1.1/DTD/svg11.dtd">
<!-- Generated by graphviz version 2.28.0 (20161014.1527)
 -->
<!-- Title: flowchart Pages: 1 -->
<svg width="544pt" height="544pt"
 viewBox="0.00 0.00 543.61 544.00" xmlns="http://www.w3.org/2000/svg" xmlns:xlink="http://www.w3.org/1999/xlink">
<g id="graph1" class="graph" transform="scale(1 1) rotate(0) translate(4 540)">
<title>flowchart</title>
<polygon fill="white" stroke="white" points="-4,5 -4,-540 540.612,-540 540.612,5 -4,5"/>
<!-- p0 -->
<g id="node1" class="node"><title>p0</title>
<ellipse fill="black" stroke="black" cx="264.612" cy="-532" rx="3.6" ry="3.6"/>
</g>
<!-- p1 -->
<g id="node2" class="node"><title>p1</title>
<ellipse fill="none" stroke="black" cx="264.612" cy="-472" rx="42.3701" ry="18"/>
<text text-anchor="middle" x="264.612" y="-468.3" font-family="Times,serif" font-size="14.00">fetchRef</text>
</g>
<!-- p0&#45;&gt;p1 -->
<g id="edge2" class="edge"><title>p0&#45;&gt;p1</title>
<path fill="none" stroke="black" d="M264.612,-528.203C264.612,-523.005 264.612,-511.361 264.612,-500.101"/>
<polygon fill="black" stroke="black" points="268.112,-500.064 264.612,-490.064 261.112,-500.064 268.112,-500.064"/>
</g>
<!-- p13 -->
<g id="node4" class="node"><title>p13</title>
<ellipse fill="none" stroke="black" cx="467.612" cy="-384" rx="53.4184" ry="18"/>
<text text-anchor="middle" x="467.612" y="-380.3" font-family="Times,serif" font-size="14.00">kangaIndex</text>
</g>
<!-- p1&#45;&gt;p13 -->
<g id="edge4" class="edge"><title>p1&#45;&gt;p13</title>
<path fill="none" stroke="black" d="M293.697,-458.678C328.363,-443.992 386.544,-419.344 425.972,-402.64"/>
<polygon fill="black" stroke="black" points="427.724,-405.699 435.567,-398.576 424.994,-399.254 427.724,-405.699"/>
<text text-anchor="middle" x="414.612" y="-424.3" font-family="Times,serif" font-size="14.00">kangaRefs</text>
</g>
<!-- p9 -->
<g id="node6" class="node"><title>p9</title>
<ellipse fill="none" stroke="black" cx="76.6121" cy="-384" rx="52.4675" ry="18"/>
<text text-anchor="middle" x="76.6121" y="-380.3" font-family="Times,serif" font-size="14.00">hisat2Index</text>
</g>
<!-- p1&#45;&gt;p9 -->
<g id="edge6" class="edge"><title>p1&#45;&gt;p9</title>
<path fill="none" stroke="black" d="M238.604,-457.5C217.92,-446.915 188.151,-432.017 161.612,-420 148.042,-413.855 133.067,-407.538 119.516,-401.992"/>
<polygon fill="black" stroke="black" points="120.522,-398.623 109.94,-398.102 117.888,-405.108 120.522,-398.623"/>
<text text-anchor="middle" x="222.612" y="-424.3" font-family="Times,serif" font-size="14.00">hisat2Refs</text>
</g>
<!-- p3 -->
<g id="node8" class="node"><title>p3</title>
<ellipse fill="none" stroke="black" cx="255.612" cy="-384" rx="69.3156" ry="18"/>
<text text-anchor="middle" x="255.612" y="-380.3" font-family="Times,serif" font-size="14.00">kangaSimReads</text>
</g>
<!-- p1&#45;&gt;p3 -->
<g id="edge8" class="edge"><title>p1&#45;&gt;p3</title>
<path fill="none" stroke="black" d="M262.834,-454.009C261.597,-442.19 259.921,-426.171 258.494,-412.542"/>
<polygon fill="black" stroke="black" points="261.939,-411.831 257.417,-402.25 254.977,-412.56 261.939,-411.831"/>
<text text-anchor="middle" x="302.112" y="-424.3" font-family="Times,serif" font-size="14.00">simReadsRefs</text>
</g>
<!-- p14 -->
<g id="node12" class="node"><title>p14</title>
<ellipse fill="none" stroke="black" cx="432.612" cy="-296" rx="53.4184" ry="18"/>
<text text-anchor="middle" x="432.612" y="-292.3" font-family="Times,serif" font-size="14.00">kangaAlign</text>
</g>
<!-- p13&#45;&gt;p14 -->
<g id="edge42" class="edge"><title>p13&#45;&gt;p14</title>
<path fill="none" stroke="black" d="M479.254,-366.324C484.887,-356.059 489.319,-342.838 483.612,-332 480.591,-326.263 476.159,-321.286 471.148,-317.028"/>
<polygon fill="black" stroke="black" points="473.036,-314.071 462.919,-310.925 468.866,-319.693 473.036,-314.071"/>
<text text-anchor="middle" x="511.112" y="-336.3" font-family="Times,serif" font-size="14.00">kangadb</text>
</g>
<!-- p10 -->
<g id="node14" class="node"><title>p10</title>
<ellipse fill="none" stroke="black" cx="77.6121" cy="-296" rx="52.4675" ry="18"/>
<text text-anchor="middle" x="77.6121" y="-292.3" font-family="Times,serif" font-size="14.00">hisat2Align</text>
</g>
<!-- p9&#45;&gt;p10 -->
<g id="edge34" class="edge"><title>p9&#45;&gt;p10</title>
<path fill="none" stroke="black" d="M37.1055,-371.971C14.3027,-363.437 -7.80199,-350.025 3.61214,-332 9.25871,-323.083 17.8568,-316.394 27.2188,-311.391"/>
<polygon fill="black" stroke="black" points="28.7978,-314.516 36.3574,-307.093 25.8186,-308.182 28.7978,-314.516"/>
<text text-anchor="middle" x="29.6121" y="-336.3" font-family="Times,serif" font-size="14.00">hisat2dbs</text>
</g>
<!-- p3&#45;&gt;p14 -->
<g id="edge12" class="edge"><title>p3&#45;&gt;p14</title>
<path fill="none" stroke="black" d="M324.219,-381.076C353.614,-377.063 386.626,-367.911 410.612,-348 418.052,-341.825 423.038,-332.663 426.352,-323.802"/>
<polygon fill="black" stroke="black" points="429.742,-324.691 429.425,-314.1 423.069,-322.577 429.742,-324.691"/>
<text text-anchor="middle" x="447.612" y="-336.3" font-family="Times,serif" font-size="14.00">kangaR1</text>
</g>
<!-- p3&#45;&gt;p14 -->
<g id="edge18" class="edge"><title>p3&#45;&gt;p14</title>
<path fill="none" stroke="black" d="M285.524,-367.541C305.551,-357.278 332.552,-343.61 356.612,-332 368.162,-326.427 380.784,-320.535 392.365,-315.207"/>
<polygon fill="black" stroke="black" points="394.168,-318.231 401.802,-310.884 391.253,-311.867 394.168,-318.231"/>
<text text-anchor="middle" x="381.612" y="-336.3" font-family="Times,serif" font-size="14.00">kangaR2</text>
</g>
<!-- p3&#45;&gt;p10 -->
<g id="edge14" class="edge"><title>p3&#45;&gt;p10</title>
<path fill="none" stroke="black" d="M215.6,-369.217C199.506,-363.26 180.931,-355.857 164.612,-348 145.845,-338.965 125.732,-327.313 109.577,-317.428"/>
<polygon fill="black" stroke="black" points="111.387,-314.432 101.042,-312.146 107.703,-320.385 111.387,-314.432"/>
<text text-anchor="middle" x="189.112" y="-336.3" font-family="Times,serif" font-size="14.00">hisat2R1</text>
</g>
<!-- p3&#45;&gt;p10 -->
<g id="edge20" class="edge"><title>p3&#45;&gt;p10</title>
<path fill="none" stroke="black" d="M196.554,-374.571C149.551,-367.29 90.3903,-356.614 82.6121,-348 76.8473,-341.616 74.7238,-332.779 74.3135,-324.253"/>
<polygon fill="black" stroke="black" points="77.8139,-324.267 74.5329,-314.193 70.8156,-324.114 77.8139,-324.267"/>
<text text-anchor="middle" x="107.112" y="-336.3" font-family="Times,serif" font-size="14.00">hisat2R2</text>
</g>
<!-- p4 -->
<g id="node16" class="node"><title>p4</title>
<ellipse fill="none" stroke="black" cx="254.612" cy="-296" rx="83.2892" ry="18"/>
<text text-anchor="middle" x="254.612" y="-292.3" font-family="Times,serif" font-size="14.00">fasta2mockFASTQ</text>
</g>
<!-- p3&#45;&gt;p4 -->
<g id="edge22" class="edge"><title>p3&#45;&gt;p4</title>
<path fill="none" stroke="black" d="M232.698,-366.798C227.023,-361.516 221.689,-355.147 218.612,-348 214.52,-338.495 218.488,-328.986 225.074,-320.797"/>
<polygon fill="black" stroke="black" points="227.727,-323.084 232.012,-313.395 222.62,-318.297 227.727,-323.084"/>
<text text-anchor="middle" x="241.612" y="-336.3" font-family="Times,serif" font-size="14.00">fa2fqR2</text>
</g>
<!-- p3&#45;&gt;p4 -->
<g id="edge16" class="edge"><title>p3&#45;&gt;p4</title>
<path fill="none" stroke="black" d="M263.771,-366.114C267.574,-356.235 270.824,-343.485 268.612,-332 268.085,-329.263 267.346,-326.467 266.479,-323.709"/>
<polygon fill="black" stroke="black" points="269.667,-322.235 262.938,-314.052 263.095,-324.645 269.667,-322.235"/>
<text text-anchor="middle" x="292.612" y="-336.3" font-family="Times,serif" font-size="14.00">fa2fqR1</text>
</g>
<!-- p2 -->
<g id="node10" class="node"><title>p2</title>
<ellipse fill="black" stroke="black" cx="44.6121" cy="-472" rx="3.6" ry="3.6"/>
</g>
<!-- p2&#45;&gt;p3 -->
<g id="edge10" class="edge"><title>p2&#45;&gt;p3</title>
<path fill="none" stroke="black" d="M43.2977,-468.268C39.4841,-459.901 29.4364,-434.329 41.6121,-420 44.0223,-417.164 125.17,-404.468 186.825,-395.181"/>
<polygon fill="black" stroke="black" points="187.555,-398.611 196.924,-393.664 186.515,-391.688 187.555,-398.611"/>
<text text-anchor="middle" x="99.6121" y="-424.3" font-family="Times,serif" font-size="14.00">__$eachinparam&lt;1&gt;</text>
</g>
<!-- p15 -->
<g id="node37" class="node"><title>p15</title>
<ellipse fill="black" stroke="black" cx="432.612" cy="-208" rx="1.8" ry="1.8"/>
</g>
<!-- p14&#45;&gt;p15 -->
<g id="edge44" class="edge"><title>p14&#45;&gt;p15</title>
<path fill="none" stroke="black" d="M432.612,-277.597C432.612,-260.516 432.612,-234.965 432.612,-220.348"/>
<polygon fill="black" stroke="black" points="436.112,-220.095 432.612,-210.095 429.112,-220.095 436.112,-220.095"/>
<text text-anchor="middle" x="468.612" y="-248.3" font-family="Times,serif" font-size="14.00">kangaBAMs</text>
</g>
<!-- p11 -->
<g id="node31" class="node"><title>p11</title>
<ellipse fill="none" stroke="black" cx="90.6121" cy="-208" rx="45.244" ry="18"/>
<text text-anchor="middle" x="90.6121" y="-204.3" font-family="Times,serif" font-size="14.00">sam2bam</text>
</g>
<!-- p10&#45;&gt;p11 -->
<g id="edge36" class="edge"><title>p10&#45;&gt;p11</title>
<path fill="none" stroke="black" d="M80.1805,-278.009C81.9849,-266.073 84.4367,-249.853 86.5099,-236.138"/>
<polygon fill="black" stroke="black" points="89.9705,-236.661 88.0046,-226.25 83.0492,-235.614 89.9705,-236.661"/>
<text text-anchor="middle" x="112.612" y="-248.3" font-family="Times,serif" font-size="14.00">samname</text>
</g>
<!-- p10&#45;&gt;p11 -->
<g id="edge38" class="edge"><title>p10&#45;&gt;p11</title>
<path fill="none" stroke="black" d="M63.9569,-278.48C57.4204,-268.506 51.9319,-255.535 56.6121,-244 58.343,-239.734 60.8712,-235.702 63.7801,-231.997"/>
<polygon fill="black" stroke="black" points="66.4945,-234.213 70.5948,-224.444 61.2973,-229.524 66.4945,-234.213"/>
<text text-anchor="middle" x="68.1121" y="-248.3" font-family="Times,serif" font-size="14.00">sam</text>
</g>
<!-- p5 -->
<g id="node21" class="node"><title>p5</title>
<ellipse fill="none" stroke="black" cx="222.612" cy="-208" rx="36.096" ry="18"/>
<text text-anchor="middle" x="222.612" y="-204.3" font-family="Times,serif" font-size="14.00">fastQC</text>
</g>
<!-- p4&#45;&gt;p5 -->
<g id="edge24" class="edge"><title>p4&#45;&gt;p5</title>
<path fill="none" stroke="black" d="M257.64,-277.896C258.713,-267.714 258.778,-254.73 254.612,-244 252.924,-239.652 250.416,-235.514 247.533,-231.706"/>
<polygon fill="black" stroke="black" points="249.995,-229.203 240.797,-223.944 244.708,-233.791 249.995,-229.203"/>
<text text-anchor="middle" x="285.112" y="-248.3" font-family="Times,serif" font-size="14.00">FASTQ1</text>
</g>
<!-- p4&#45;&gt;p5 -->
<g id="edge26" class="edge"><title>p4&#45;&gt;p5</title>
<path fill="none" stroke="black" d="M217.558,-279.803C209.597,-274.727 202.204,-268.209 197.612,-260 192.702,-251.222 195.673,-241.343 201.025,-232.633"/>
<polygon fill="black" stroke="black" points="203.954,-234.555 206.967,-224.398 198.277,-230.46 203.954,-234.555"/>
<text text-anchor="middle" x="224.112" y="-248.3" font-family="Times,serif" font-size="14.00">FASTQ2</text>
</g>
<!-- p6 -->
<g id="node24" class="node"><title>p6</title>
<ellipse fill="none" stroke="black" cx="222.612" cy="-134" rx="3.25" ry="3.5"/>
<text text-anchor="middle" x="781.612" y="-130.3" font-family="Times,serif" font-size="14.00">collect</text>
</g>
<!-- p5&#45;&gt;p6 -->
<g id="edge28" class="edge"><title>p5&#45;&gt;p6</title>
<path fill="none" stroke="black" d="M222.612,-189.937C222.612,-177.126 222.612,-159.843 222.612,-148.107"/>
<polygon fill="black" stroke="black" points="226.112,-147.748 222.612,-137.748 219.112,-147.748 226.112,-147.748"/>
<text text-anchor="middle" x="261.112" y="-160.3" font-family="Times,serif" font-size="14.00">fastqc_results</text>
</g>
<!-- p7 -->
<g id="node26" class="node"><title>p7</title>
<ellipse fill="none" stroke="black" cx="222.612" cy="-74" rx="42.3456" ry="18"/>
<text text-anchor="middle" x="222.612" y="-70.3" font-family="Times,serif" font-size="14.00">multiQC</text>
</g>
<!-- p6&#45;&gt;p7 -->
<g id="edge30" class="edge"><title>p6&#45;&gt;p7</title>
<path fill="none" stroke="black" d="M222.612,-130.203C222.612,-125.005 222.612,-113.361 222.612,-102.101"/>
<polygon fill="black" stroke="black" points="226.112,-102.064 222.612,-92.0638 219.112,-102.064 226.112,-102.064"/>
</g>
<!-- p8 -->
<g id="node28" class="node"><title>p8</title>
<ellipse fill="black" stroke="black" cx="222.612" cy="-2" rx="1.8" ry="1.8"/>
</g>
<!-- p7&#45;&gt;p8 -->
<g id="edge32" class="edge"><title>p7&#45;&gt;p8</title>
<path fill="none" stroke="black" d="M222.612,-55.6966C222.612,-42.6347 222.612,-25.1104 222.612,-13.9338"/>
<polygon fill="black" stroke="black" points="226.112,-13.8073 222.612,-3.8073 219.112,-13.8073 226.112,-13.8073"/>
<text text-anchor="middle" x="265.112" y="-26.3" font-family="Times,serif" font-size="14.00">multiqc_report</text>
</g>
<!-- p12 -->
<g id="node34" class="node"><title>p12</title>
<ellipse fill="black" stroke="black" cx="90.6121" cy="-134" rx="1.8" ry="1.8"/>
</g>
<!-- p11&#45;&gt;p12 -->
<g id="edge40" class="edge"><title>p11&#45;&gt;p12</title>
<path fill="none" stroke="black" d="M90.6121,-189.937C90.6121,-176.37 90.6121,-157.787 90.6121,-146.089"/>
<polygon fill="black" stroke="black" points="94.1122,-145.849 90.6121,-135.849 87.1122,-145.849 94.1122,-145.849"/>
<text text-anchor="middle" x="109.612" y="-160.3" font-family="Times,serif" font-size="14.00">BAMs</text>
</g>
</g>
</svg>
