<?xml version="1.0" encoding="UTF-8" standalone="no"?>
<!DOCTYPE svg PUBLIC "-//W3C//DTD SVG 1.1//EN"
 "http://www.w3.org/Graphics/SVG/1.1/DTD/svg11.dtd">
<!-- Generated by graphviz version 2.28.0 (20161014.1527)
 -->
<!-- Title: flowchart Pages: 1 -->
<svg width="401pt" height="424pt"
 viewBox="0.00 0.00 401.00 424.00" xmlns="http://www.w3.org/2000/svg" xmlns:xlink="http://www.w3.org/1999/xlink">
<g id="graph1" class="graph" transform="scale(1 1) rotate(0) translate(4 420)">
<title>flowchart</title>
<polygon fill="white" stroke="white" points="-4,5 -4,-420 398,-420 398,5 -4,5"/>
<!-- p0 -->
<g id="node1" class="node"><title>p0</title>
<ellipse fill="black" stroke="black" cx="215" cy="-412" rx="3.6" ry="3.6"/>
</g>
<!-- p1 -->
<g id="node2" class="node"><title>p1</title>
<ellipse fill="none" stroke="black" cx="215" cy="-338" rx="42.3701" ry="18"/>
<text text-anchor="middle" x="215" y="-334.3" font-family="Times,serif" font-size="14.00">fetchRef</text>
</g>
<!-- p0&#45;&gt;p1 -->
<g id="edge2" class="edge"><title>p0&#45;&gt;p1</title>
<path fill="none" stroke="black" d="M215,-408.265C215,-401.354 215,-382.578 215,-366.316"/>
<polygon fill="black" stroke="black" points="218.5,-366.143 215,-356.143 211.5,-366.143 218.5,-366.143"/>
<text text-anchor="middle" x="223" y="-378.3" font-family="Times,serif" font-size="14.00">url</text>
</g>
<!-- p2 -->
<g id="node4" class="node"><title>p2</title>
<ellipse fill="none" stroke="black" cx="74" cy="-250" rx="69.3156" ry="18"/>
<text text-anchor="middle" x="74" y="-246.3" font-family="Times,serif" font-size="14.00">kangaSimReads</text>
</g>
<!-- p1&#45;&gt;p2 -->
<g id="edge4" class="edge"><title>p1&#45;&gt;p2</title>
<path fill="none" stroke="black" d="M191.717,-322.799C169.187,-309.057 134.75,-288.053 108.934,-272.307"/>
<polygon fill="black" stroke="black" points="110.556,-269.197 100.196,-266.978 106.911,-275.173 110.556,-269.197"/>
<text text-anchor="middle" x="169" y="-290.3" font-family="Times,serif" font-size="14.00">refs</text>
</g>
<!-- p3 -->
<g id="node9" class="node"><title>p3</title>
<ellipse fill="none" stroke="black" cx="340" cy="-250" rx="52.4675" ry="18"/>
<text text-anchor="middle" x="340" y="-246.3" font-family="Times,serif" font-size="14.00">hisat2Index</text>
</g>
<!-- p1&#45;&gt;p3 -->
<g id="edge10" class="edge"><title>p1&#45;&gt;p3</title>
<path fill="none" stroke="black" d="M236.205,-322.411C256.216,-308.643 286.451,-287.842 309.135,-272.235"/>
<polygon fill="black" stroke="black" points="311.168,-275.085 317.422,-266.533 307.2,-269.318 311.168,-275.085"/>
<text text-anchor="middle" x="300" y="-290.3" font-family="Times,serif" font-size="14.00">refs</text>
</g>
<!-- p7 -->
<g id="node16" class="node"><title>p7</title>
<ellipse fill="none" stroke="black" cx="215" cy="-250" rx="53.4184" ry="18"/>
<text text-anchor="middle" x="215" y="-246.3" font-family="Times,serif" font-size="14.00">kangaIndex</text>
</g>
<!-- p1&#45;&gt;p7 -->
<g id="edge18" class="edge"><title>p1&#45;&gt;p7</title>
<path fill="none" stroke="black" d="M215,-319.597C215,-307.746 215,-291.817 215,-278.292"/>
<polygon fill="black" stroke="black" points="218.5,-278.084 215,-268.084 211.5,-278.084 218.5,-278.084"/>
<text text-anchor="middle" x="226" y="-290.3" font-family="Times,serif" font-size="14.00">refs</text>
</g>
<!-- p4 -->
<g id="node6" class="node"><title>p4</title>
<ellipse fill="none" stroke="black" cx="182" cy="-162" rx="52.4675" ry="18"/>
<text text-anchor="middle" x="182" y="-158.3" font-family="Times,serif" font-size="14.00">hisat2Align</text>
</g>
<!-- p2&#45;&gt;p4 -->
<g id="edge6" class="edge"><title>p2&#45;&gt;p4</title>
<path fill="none" stroke="black" d="M107.241,-234.164C117.921,-228.618 129.449,-221.757 139,-214 148.361,-206.397 157.22,-196.542 164.438,-187.524"/>
<polygon fill="black" stroke="black" points="167.239,-189.624 170.572,-179.567 161.695,-185.35 167.239,-189.624"/>
<text text-anchor="middle" x="163" y="-202.3" font-family="Times,serif" font-size="14.00">R1</text>
</g>
<!-- p2&#45;&gt;p4 -->
<g id="edge8" class="edge"><title>p2&#45;&gt;p4</title>
<path fill="none" stroke="black" d="M86.5192,-232.049C94.9198,-221.426 106.671,-207.918 119,-198 126.374,-192.068 134.891,-186.585 143.231,-181.805"/>
<polygon fill="black" stroke="black" points="145.07,-184.788 152.149,-176.906 141.699,-178.653 145.07,-184.788"/>
<text text-anchor="middle" x="127" y="-202.3" font-family="Times,serif" font-size="14.00">R2</text>
</g>
<!-- p8 -->
<g id="node18" class="node"><title>p8</title>
<ellipse fill="none" stroke="black" cx="57" cy="-162" rx="53.4184" ry="18"/>
<text text-anchor="middle" x="57" y="-158.3" font-family="Times,serif" font-size="14.00">kangaAlign</text>
</g>
<!-- p2&#45;&gt;p8 -->
<g id="edge22" class="edge"><title>p2&#45;&gt;p8</title>
<path fill="none" stroke="black" d="M52.3028,-232.59C46.934,-227.306 41.8939,-220.986 39,-214 35.6426,-205.895 37.134,-196.912 40.3819,-188.772"/>
<polygon fill="black" stroke="black" points="43.5661,-190.228 44.8162,-179.707 37.2781,-187.152 43.5661,-190.228"/>
<text text-anchor="middle" x="47" y="-202.3" font-family="Times,serif" font-size="14.00">R1</text>
</g>
<!-- p2&#45;&gt;p8 -->
<g id="edge24" class="edge"><title>p2&#45;&gt;p8</title>
<path fill="none" stroke="black" d="M70.6413,-232.009C68.2818,-220.073 65.0756,-203.853 62.3644,-190.138"/>
<polygon fill="black" stroke="black" points="65.7827,-189.381 60.4099,-180.25 58.9156,-190.739 65.7827,-189.381"/>
<text text-anchor="middle" x="76" y="-202.3" font-family="Times,serif" font-size="14.00">R2</text>
</g>
<!-- p5 -->
<g id="node12" class="node"><title>p5</title>
<ellipse fill="none" stroke="black" cx="182" cy="-74" rx="45.244" ry="18"/>
<text text-anchor="middle" x="182" y="-70.3" font-family="Times,serif" font-size="14.00">sam2bam</text>
</g>
<!-- p4&#45;&gt;p5 -->
<g id="edge14" class="edge"><title>p4&#45;&gt;p5</title>
<path fill="none" stroke="black" d="M182,-143.597C182,-131.746 182,-115.817 182,-102.292"/>
<polygon fill="black" stroke="black" points="185.5,-102.084 182,-92.084 178.5,-102.084 185.5,-102.084"/>
<text text-anchor="middle" x="193.5" y="-114.3" font-family="Times,serif" font-size="14.00">sam</text>
</g>
<!-- p3&#45;&gt;p4 -->
<g id="edge12" class="edge"><title>p3&#45;&gt;p4</title>
<path fill="none" stroke="black" d="M316.486,-233.821C299.852,-223.308 276.882,-209.238 256,-198 245.05,-192.107 232.94,-186.153 221.743,-180.869"/>
<polygon fill="black" stroke="black" points="223.139,-177.659 212.597,-176.604 220.18,-184.003 223.139,-177.659"/>
<text text-anchor="middle" x="308" y="-202.3" font-family="Times,serif" font-size="14.00">hisat2dbs</text>
</g>
<!-- p6 -->
<g id="node14" class="node"><title>p6</title>
<ellipse fill="black" stroke="black" cx="182" cy="-2" rx="1.8" ry="1.8"/>
</g>
<!-- p5&#45;&gt;p6 -->
<g id="edge16" class="edge"><title>p5&#45;&gt;p6</title>
<path fill="none" stroke="black" d="M182,-55.6966C182,-42.6347 182,-25.1104 182,-13.9338"/>
<polygon fill="black" stroke="black" points="185.5,-13.8073 182,-3.8073 178.5,-13.8073 185.5,-13.8073"/>
<text text-anchor="middle" x="194.5" y="-26.3" font-family="Times,serif" font-size="14.00">bam</text>
</g>
<!-- p7&#45;&gt;p8 -->
<g id="edge20" class="edge"><title>p7&#45;&gt;p8</title>
<path fill="none" stroke="black" d="M205.525,-232.047C198.463,-220.868 187.842,-206.73 175,-198 171.93,-195.913 137.425,-185.779 106.515,-176.949"/>
<polygon fill="black" stroke="black" points="107.227,-173.513 96.6505,-174.14 105.31,-180.245 107.227,-173.513"/>
<text text-anchor="middle" x="216.5" y="-202.3" font-family="Times,serif" font-size="14.00">kangadb</text>
</g>
<!-- p9 -->
<g id="node22" class="node"><title>p9</title>
<ellipse fill="none" stroke="black" cx="57" cy="-74" rx="57.2688" ry="18"/>
<text text-anchor="middle" x="57" y="-70.3" font-family="Times,serif" font-size="14.00">bamReIndex</text>
</g>
<!-- p8&#45;&gt;p9 -->
<g id="edge26" class="edge"><title>p8&#45;&gt;p9</title>
<path fill="none" stroke="black" d="M57,-143.597C57,-131.746 57,-115.817 57,-102.292"/>
<polygon fill="black" stroke="black" points="60.5001,-102.084 57,-92.084 53.5001,-102.084 60.5001,-102.084"/>
<text text-anchor="middle" x="72" y="-114.3" font-family="Times,serif" font-size="14.00">bams</text>
</g>
</g>
</svg>
