<?xml version="1.0" encoding="UTF-8" standalone="no"?>
<!DOCTYPE svg PUBLIC "-//W3C//DTD SVG 1.1//EN"
 "http://www.w3.org/Graphics/SVG/1.1/DTD/svg11.dtd">
<!-- Generated by graphviz version 2.28.0 (20161014.1527)
 -->
<!-- Title: flowchart Pages: 1 -->
<svg width="394pt" height="368pt"
 viewBox="0.00 0.00 394.00 368.00" xmlns="http://www.w3.org/2000/svg" xmlns:xlink="http://www.w3.org/1999/xlink">
<g id="graph1" class="graph" transform="scale(1 1) rotate(0) translate(4 364)">
<title>flowchart</title>
<polygon fill="white" stroke="white" points="-4,5 -4,-364 391,-364 391,5 -4,5"/>
<!-- p0 -->
<g id="node1" class="node"><title>p0</title>
<ellipse fill="black" stroke="black" cx="194" cy="-356" rx="3.6" ry="3.6"/>
</g>
<!-- p1 -->
<g id="node2" class="node"><title>p1</title>
<ellipse fill="none" stroke="black" cx="194" cy="-282" rx="42.3701" ry="18"/>
<text text-anchor="middle" x="194" y="-278.3" font-family="Times,serif" font-size="14.00">fetchRef</text>
</g>
<!-- p0&#45;&gt;p1 -->
<g id="edge2" class="edge"><title>p0&#45;&gt;p1</title>
<path fill="none" stroke="black" d="M194,-352.265C194,-345.354 194,-326.578 194,-310.316"/>
<polygon fill="black" stroke="black" points="197.5,-310.143 194,-300.143 190.5,-310.143 197.5,-310.143"/>
<text text-anchor="middle" x="202" y="-322.3" font-family="Times,serif" font-size="14.00">url</text>
</g>
<!-- p2 -->
<g id="node4" class="node"><title>p2</title>
<ellipse fill="none" stroke="black" cx="194" cy="-194" rx="69.3156" ry="18"/>
<text text-anchor="middle" x="194" y="-190.3" font-family="Times,serif" font-size="14.00">kangaSimReads</text>
</g>
<!-- p1&#45;&gt;p2 -->
<g id="edge4" class="edge"><title>p1&#45;&gt;p2</title>
<path fill="none" stroke="black" d="M194,-263.597C194,-251.746 194,-235.817 194,-222.292"/>
<polygon fill="black" stroke="black" points="197.5,-222.084 194,-212.084 190.5,-222.084 197.5,-222.084"/>
<text text-anchor="middle" x="205" y="-234.3" font-family="Times,serif" font-size="14.00">refs</text>
</g>
<!-- p3 -->
<g id="node9" class="node"><title>p3</title>
<ellipse fill="none" stroke="black" cx="53" cy="-194" rx="53.4184" ry="18"/>
<text text-anchor="middle" x="53" y="-190.3" font-family="Times,serif" font-size="14.00">kangaIndex</text>
</g>
<!-- p1&#45;&gt;p3 -->
<g id="edge10" class="edge"><title>p1&#45;&gt;p3</title>
<path fill="none" stroke="black" d="M170.717,-266.799C147.767,-252.801 112.462,-231.268 86.5,-215.433"/>
<polygon fill="black" stroke="black" points="88.1017,-212.31 77.7419,-210.091 84.4567,-218.286 88.1017,-212.31"/>
<text text-anchor="middle" x="148" y="-234.3" font-family="Times,serif" font-size="14.00">refs</text>
</g>
<!-- p4 -->
<g id="node13" class="node"><title>p4</title>
<ellipse fill="none" stroke="black" cx="334" cy="-194" rx="52.4675" ry="18"/>
<text text-anchor="middle" x="334" y="-190.3" font-family="Times,serif" font-size="14.00">hisat2Index</text>
</g>
<!-- p1&#45;&gt;p4 -->
<g id="edge14" class="edge"><title>p1&#45;&gt;p4</title>
<path fill="none" stroke="black" d="M217.118,-266.799C239.905,-252.801 274.959,-231.268 300.738,-215.433"/>
<polygon fill="black" stroke="black" points="302.745,-218.307 309.434,-210.091 299.081,-212.343 302.745,-218.307"/>
<text text-anchor="middle" x="288" y="-234.3" font-family="Times,serif" font-size="14.00">refs</text>
</g>
<!-- p5 -->
<g id="node6" class="node"><title>p5</title>
<ellipse fill="none" stroke="black" cx="271" cy="-106" rx="52.4675" ry="18"/>
<text text-anchor="middle" x="271" y="-102.3" font-family="Times,serif" font-size="14.00">hisat2Align</text>
</g>
<!-- p2&#45;&gt;p5 -->
<g id="edge6" class="edge"><title>p2&#45;&gt;p5</title>
<path fill="none" stroke="black" d="M205.945,-175.877C213.329,-165.688 223.233,-152.704 233,-142 236.61,-138.043 240.604,-134.028 244.606,-130.197"/>
<polygon fill="black" stroke="black" points="247.275,-132.494 252.213,-123.12 242.507,-127.369 247.275,-132.494"/>
<text text-anchor="middle" x="241" y="-146.3" font-family="Times,serif" font-size="14.00">R1</text>
</g>
<!-- p2&#45;&gt;p5 -->
<g id="edge8" class="edge"><title>p2&#45;&gt;p5</title>
<path fill="none" stroke="black" d="M225.053,-177.716C233.635,-172.381 242.394,-165.754 249,-158 255.023,-150.931 259.628,-141.962 263.03,-133.524"/>
<polygon fill="black" stroke="black" points="266.362,-134.601 266.482,-124.007 259.782,-132.214 266.362,-134.601"/>
<text text-anchor="middle" x="267" y="-146.3" font-family="Times,serif" font-size="14.00">R2</text>
</g>
<!-- p6 -->
<g id="node11" class="node"><title>p6</title>
<ellipse fill="none" stroke="black" cx="146" cy="-106" rx="53.4184" ry="18"/>
<text text-anchor="middle" x="146" y="-102.3" font-family="Times,serif" font-size="14.00">kangaAlign</text>
</g>
<!-- p2&#45;&gt;p6 -->
<g id="edge18" class="edge"><title>p2&#45;&gt;p6</title>
<path fill="none" stroke="black" d="M185.226,-175.877C180.051,-165.919 173.301,-153.169 167,-142 165.276,-138.945 163.434,-135.763 161.584,-132.617"/>
<polygon fill="black" stroke="black" points="164.564,-130.781 156.438,-123.983 158.551,-134.365 164.564,-130.781"/>
<text text-anchor="middle" x="184" y="-146.3" font-family="Times,serif" font-size="14.00">R1</text>
</g>
<!-- p2&#45;&gt;p6 -->
<g id="edge20" class="edge"><title>p2&#45;&gt;p6</title>
<path fill="none" stroke="black" d="M164.644,-177.488C157.62,-172.283 151.003,-165.78 147,-158 143.282,-150.772 142.101,-142.172 142.116,-134.112"/>
<polygon fill="black" stroke="black" points="145.618,-134.177 142.712,-123.989 138.63,-133.766 145.618,-134.177"/>
<text text-anchor="middle" x="155" y="-146.3" font-family="Times,serif" font-size="14.00">R2</text>
</g>
<!-- p3&#45;&gt;p6 -->
<g id="edge12" class="edge"><title>p3&#45;&gt;p6</title>
<path fill="none" stroke="black" d="M62.8988,-176.106C69.6485,-165.506 79.2837,-152.001 90,-142 95.8935,-136.5 102.774,-131.381 109.655,-126.848"/>
<polygon fill="black" stroke="black" points="111.679,-129.71 118.297,-121.436 107.964,-123.778 111.679,-129.71"/>
<text text-anchor="middle" x="114.5" y="-146.3" font-family="Times,serif" font-size="14.00">kangadb</text>
</g>
<!-- p7 -->
<g id="node18" class="node"><title>p7</title>
<ellipse fill="none" stroke="black" cx="146" cy="-18" rx="57.2688" ry="18"/>
<text text-anchor="middle" x="146" y="-14.3" font-family="Times,serif" font-size="14.00">bamReIndex</text>
</g>
<!-- p6&#45;&gt;p7 -->
<g id="edge22" class="edge"><title>p6&#45;&gt;p7</title>
<path fill="none" stroke="black" d="M146,-87.5966C146,-75.7459 146,-59.8169 146,-46.2917"/>
<polygon fill="black" stroke="black" points="149.5,-46.084 146,-36.084 142.5,-46.084 149.5,-46.084"/>
<text text-anchor="middle" x="161" y="-58.3" font-family="Times,serif" font-size="14.00">bams</text>
</g>
<!-- p4&#45;&gt;p5 -->
<g id="edge16" class="edge"><title>p4&#45;&gt;p5</title>
<path fill="none" stroke="black" d="M321.853,-176.418C312.615,-163.807 299.75,-146.246 289.272,-131.942"/>
<polygon fill="black" stroke="black" points="291.843,-129.529 283.11,-123.531 286.196,-133.666 291.843,-129.529"/>
<text text-anchor="middle" x="331.5" y="-146.3" font-family="Times,serif" font-size="14.00">hisat2db</text>
</g>
</g>
</svg>
