<?xml version="1.0" encoding="UTF-8" standalone="no"?>
<!DOCTYPE svg PUBLIC "-//W3C//DTD SVG 1.1//EN"
 "http://www.w3.org/Graphics/SVG/1.1/DTD/svg11.dtd">
<!-- Generated by graphviz version 2.38.0 (20140413.2041)
 -->
<!-- Title: flowchart Pages: 1 -->
<svg width="658pt" height="820pt"
 viewBox="0.00 0.00 657.60 820.20" xmlns="http://www.w3.org/2000/svg" xmlns:xlink="http://www.w3.org/1999/xlink">
<g id="graph0" class="graph" transform="scale(1 1) rotate(0) translate(4 816.2)">
<title>flowchart</title>
<polygon fill="white" stroke="none" points="-4,4 -4,-816.2 653.595,-816.2 653.595,4 -4,4"/>
<!-- p0 -->
<g id="node1" class="node"><title>p0</title>
<ellipse fill="black" stroke="black" cx="497.6" cy="-808.6" rx="3.6" ry="3.6"/>
</g>
<!-- p2 -->
<g id="node2" class="node"><title>p2</title>
<ellipse fill="none" stroke="black" cx="516.6" cy="-736" rx="40.8928" ry="18"/>
<text text-anchor="middle" x="516.6" y="-732.3" font-family="Times,serif" font-size="14.00">fetchRef</text>
</g>
<!-- p0&#45;&gt;p2 -->
<g id="edge1" class="edge"><title>p0&#45;&gt;p2</title>
<path fill="none" stroke="black" d="M497.281,-804.954C496.643,-798.968 495.522,-783.977 498.6,-772 499.391,-768.923 500.488,-765.809 501.755,-762.773"/>
<polygon fill="black" stroke="black" points="505.042,-764.011 506.209,-753.481 498.73,-760.985 505.042,-764.011"/>
<text text-anchor="middle" x="506.6" y="-775.8" font-family="Times,serif" font-size="14.00">url</text>
</g>
<!-- p13 -->
<g id="node4" class="node"><title>p13</title>
<ellipse fill="none" stroke="black" cx="475.6" cy="-649" rx="51.9908" ry="18"/>
<text text-anchor="middle" x="475.6" y="-645.3" font-family="Times,serif" font-size="14.00">kangaIndex</text>
</g>
<!-- p2&#45;&gt;p13 -->
<g id="edge3" class="edge"><title>p2&#45;&gt;p13</title>
<path fill="none" stroke="black" d="M509.609,-718.174C505.445,-708.399 499.945,-695.899 494.6,-685 493.139,-682.02 491.558,-678.927 489.953,-675.869"/>
<polygon fill="black" stroke="black" points="492.975,-674.099 485.164,-666.942 486.807,-677.409 492.975,-674.099"/>
<text text-anchor="middle" x="531.6" y="-688.8" font-family="Times,serif" font-size="14.00">kangaRefs</text>
</g>
<!-- p11 -->
<g id="node5" class="node"><title>p11</title>
<ellipse fill="none" stroke="black" cx="597.6" cy="-649" rx="51.9908" ry="18"/>
<text text-anchor="middle" x="597.6" y="-645.3" font-family="Times,serif" font-size="14.00">hisat2Index</text>
</g>
<!-- p2&#45;&gt;p11 -->
<g id="edge4" class="edge"><title>p2&#45;&gt;p11</title>
<path fill="none" stroke="black" d="M539.439,-720.842C547.884,-714.991 557.195,-707.759 564.6,-700 571.561,-692.706 577.982,-683.767 583.274,-675.474"/>
<polygon fill="black" stroke="black" points="586.323,-677.197 588.545,-666.838 580.348,-673.55 586.323,-677.197"/>
<text text-anchor="middle" x="605.6" y="-688.8" font-family="Times,serif" font-size="14.00">hisat2Refs</text>
</g>
<!-- p6 -->
<g id="node6" class="node"><title>p6</title>
<ellipse fill="none" stroke="black" cx="277.6" cy="-649" rx="67.6881" ry="18"/>
<text text-anchor="middle" x="277.6" y="-645.3" font-family="Times,serif" font-size="14.00">kangaSimReads</text>
</g>
<!-- p2&#45;&gt;p6 -->
<g id="edge5" class="edge"><title>p2&#45;&gt;p6</title>
<path fill="none" stroke="black" d="M481.305,-726.534C460.314,-720.707 433.581,-711.867 411.6,-700 402.133,-694.889 402.134,-689.986 392.6,-685 375.592,-676.105 355.961,-669.084 337.788,-663.738"/>
<polygon fill="black" stroke="black" points="338.73,-660.367 328.155,-661.017 336.827,-667.104 338.73,-660.367"/>
<text text-anchor="middle" x="451.1" y="-688.8" font-family="Times,serif" font-size="14.00">simReadsRefs</text>
</g>
<!-- p1 -->
<g id="node3" class="node"><title>p1</title>
<ellipse fill="black" stroke="black" cx="536.6" cy="-808.6" rx="3.6" ry="3.6"/>
</g>
<!-- p1&#45;&gt;p2 -->
<g id="edge2" class="edge"><title>p1&#45;&gt;p2</title>
<path fill="none" stroke="black" d="M535.84,-804.919C533.932,-798.183 528.769,-779.955 524.271,-764.077"/>
<polygon fill="black" stroke="black" points="527.545,-762.794 521.452,-754.127 520.81,-764.702 527.545,-762.794"/>
<text text-anchor="middle" x="547.1" y="-775.8" font-family="Times,serif" font-size="14.00">name</text>
</g>
<!-- p14 -->
<g id="node10" class="node"><title>p14</title>
<ellipse fill="none" stroke="black" cx="348.6" cy="-562" rx="51.9908" ry="18"/>
<text text-anchor="middle" x="348.6" y="-558.3" font-family="Times,serif" font-size="14.00">kangaAlign</text>
</g>
<!-- p13&#45;&gt;p14 -->
<g id="edge19" class="edge"><title>p13&#45;&gt;p14</title>
<path fill="none" stroke="black" d="M471.773,-630.589C468.58,-619.858 462.993,-606.56 453.6,-598 449.003,-593.811 422.203,-584.908 396.832,-577.13"/>
<polygon fill="black" stroke="black" points="397.813,-573.77 387.227,-574.216 395.781,-580.469 397.813,-573.77"/>
<text text-anchor="middle" x="490.6" y="-601.8" font-family="Times,serif" font-size="14.00">kangadbs</text>
</g>
<!-- p12 -->
<g id="node11" class="node"><title>p12</title>
<ellipse fill="none" stroke="black" cx="470.6" cy="-562" rx="51.9908" ry="18"/>
<text text-anchor="middle" x="470.6" y="-558.3" font-family="Times,serif" font-size="14.00">hisat2Align</text>
</g>
<!-- p11&#45;&gt;p12 -->
<g id="edge17" class="edge"><title>p11&#45;&gt;p12</title>
<path fill="none" stroke="black" d="M578.151,-632.227C565.252,-622.029 547.783,-608.71 531.6,-598 523.599,-592.705 514.763,-587.363 506.358,-582.502"/>
<polygon fill="black" stroke="black" points="507.889,-579.346 497.466,-577.441 504.426,-585.429 507.889,-579.346"/>
<text text-anchor="middle" x="578.6" y="-601.8" font-family="Times,serif" font-size="14.00">hisat2dbs</text>
</g>
<!-- p6&#45;&gt;p14 -->
<g id="edge9" class="edge"><title>p6&#45;&gt;p14</title>
<path fill="none" stroke="black" d="M284.378,-630.688C288.881,-620.513 295.458,-607.772 303.6,-598 307.496,-593.324 312.118,-588.874 316.891,-584.812"/>
<polygon fill="black" stroke="black" points="319.33,-587.343 324.966,-578.371 314.965,-581.871 319.33,-587.343"/>
<text text-anchor="middle" x="336.6" y="-601.8" font-family="Times,serif" font-size="14.00">kangaReads</text>
</g>
<!-- p6&#45;&gt;p12 -->
<g id="edge10" class="edge"><title>p6&#45;&gt;p12</title>
<path fill="none" stroke="black" d="M320.036,-634.909C336.058,-629.188 354.141,-621.768 369.6,-613 378.959,-607.692 379.349,-603.493 388.6,-598 400.372,-591.01 413.799,-584.671 426.331,-579.369"/>
<polygon fill="black" stroke="black" points="427.777,-582.559 435.698,-575.523 425.118,-576.084 427.777,-582.559"/>
<text text-anchor="middle" x="419.1" y="-601.8" font-family="Times,serif" font-size="14.00">hisat2reads</text>
</g>
<!-- p7 -->
<g id="node12" class="node"><title>p7</title>
<ellipse fill="none" stroke="black" cx="221.6" cy="-508" rx="79.0865" ry="18"/>
<text text-anchor="middle" x="221.6" y="-504.3" font-family="Times,serif" font-size="14.00">fasta2mockFASTQ</text>
</g>
<!-- p6&#45;&gt;p7 -->
<g id="edge11" class="edge"><title>p6&#45;&gt;p7</title>
<path fill="none" stroke="black" d="M250.366,-632.398C243.474,-627.126 236.833,-620.612 232.6,-613 219.48,-589.41 217.889,-558.143 218.861,-536.073"/>
<polygon fill="black" stroke="black" points="222.356,-536.255 219.505,-526.051 215.371,-535.806 222.356,-536.255"/>
<text text-anchor="middle" x="261.6" y="-601.8" font-family="Times,serif" font-size="14.00">fa2fqreads</text>
</g>
<!-- p3 -->
<g id="node7" class="node"><title>p3</title>
<ellipse fill="black" stroke="black" cx="3.6" cy="-736" rx="3.6" ry="3.6"/>
</g>
<!-- p3&#45;&gt;p6 -->
<g id="edge6" class="edge"><title>p3&#45;&gt;p6</title>
<path fill="none" stroke="black" d="M4.25524,-732.133C6.41725,-723.388 14.2019,-696.924 31.6,-685 58.5237,-666.548 139.574,-657.681 201.353,-653.515"/>
<polygon fill="black" stroke="black" points="201.725,-656.998 211.479,-652.862 201.275,-650.013 201.725,-656.998"/>
<text text-anchor="middle" x="88.6" y="-688.8" font-family="Times,serif" font-size="14.00">__$eachinparam&lt;1&gt;</text>
</g>
<!-- p4 -->
<g id="node8" class="node"><title>p4</title>
<ellipse fill="black" stroke="black" cx="140.6" cy="-736" rx="3.6" ry="3.6"/>
</g>
<!-- p4&#45;&gt;p6 -->
<g id="edge7" class="edge"><title>p4&#45;&gt;p6</title>
<path fill="none" stroke="black" d="M140.812,-732.263C141.609,-723.892 145.169,-698.39 159.6,-685 172.629,-672.911 189.648,-664.983 206.689,-659.788"/>
<polygon fill="black" stroke="black" points="207.982,-663.062 216.695,-657.034 206.125,-656.313 207.982,-663.062"/>
<text text-anchor="middle" x="216.6" y="-688.8" font-family="Times,serif" font-size="14.00">__$eachinparam&lt;2&gt;</text>
</g>
<!-- p5 -->
<g id="node9" class="node"><title>p5</title>
<ellipse fill="black" stroke="black" cx="277.6" cy="-736" rx="3.6" ry="3.6"/>
</g>
<!-- p5&#45;&gt;p6 -->
<g id="edge8" class="edge"><title>p5&#45;&gt;p6</title>
<path fill="none" stroke="black" d="M277.6,-732.172C277.6,-723.684 277.6,-697.753 277.6,-677.265"/>
<polygon fill="black" stroke="black" points="281.1,-677.169 277.6,-667.169 274.1,-677.169 281.1,-677.169"/>
<text text-anchor="middle" x="334.6" y="-688.8" font-family="Times,serif" font-size="14.00">__$eachinparam&lt;3&gt;</text>
</g>
<!-- p15 -->
<g id="node17" class="node"><title>p15</title>
<ellipse fill="none" stroke="black" cx="383.6" cy="-468.5" rx="3.5" ry="3.5"/>
<text text-anchor="middle" x="369.1" y="-475.8" font-family="Times,serif" font-size="14.00">mix</text>
</g>
<!-- p14&#45;&gt;p15 -->
<g id="edge20" class="edge"><title>p14&#45;&gt;p15</title>
<path fill="none" stroke="black" d="M349.947,-543.782C351.691,-528.839 355.654,-506.995 364.6,-490 366.858,-485.711 370.246,-481.649 373.538,-478.289"/>
<polygon fill="black" stroke="black" points="376.125,-480.668 381.19,-471.362 371.427,-475.478 376.125,-480.668"/>
<text text-anchor="middle" x="399.6" y="-504.3" font-family="Times,serif" font-size="14.00">kangaBAMs</text>
</g>
<!-- p12&#45;&gt;p15 -->
<g id="edge18" class="edge"><title>p12&#45;&gt;p15</title>
<path fill="none" stroke="black" d="M465.789,-543.936C460.512,-528.043 450.596,-504.661 434.6,-490 423.957,-480.246 408.083,-474.861 396.877,-472.088"/>
<polygon fill="black" stroke="black" points="397.524,-468.647 387.018,-470.021 396.087,-475.498 397.524,-468.647"/>
<text text-anchor="middle" x="493.6" y="-504.3" font-family="Times,serif" font-size="14.00">hisat2BAMs</text>
</g>
<!-- p8 -->
<g id="node13" class="node"><title>p8</title>
<ellipse fill="none" stroke="black" cx="221.6" cy="-279" rx="35.9954" ry="18"/>
<text text-anchor="middle" x="221.6" y="-275.3" font-family="Times,serif" font-size="14.00">fastQC</text>
</g>
<!-- p7&#45;&gt;p8 -->
<g id="edge12" class="edge"><title>p7&#45;&gt;p8</title>
<path fill="none" stroke="black" d="M221.6,-489.931C221.6,-477.924 221.6,-461.479 221.6,-447 221.6,-447 221.6,-447 221.6,-336.5 221.6,-326.982 221.6,-316.562 221.6,-307.292"/>
<polygon fill="black" stroke="black" points="225.1,-307.06 221.6,-297.06 218.1,-307.06 225.1,-307.06"/>
<text text-anchor="middle" x="243.1" y="-406.3" font-family="Times,serif" font-size="14.00">FASTQ</text>
</g>
<!-- p9 -->
<g id="node14" class="node"><title>p9</title>
<ellipse fill="none" stroke="black" cx="221.6" cy="-192" rx="3.5" ry="3.5"/>
<text text-anchor="middle" x="199.6" y="-199.3" font-family="Times,serif" font-size="14.00">collect</text>
</g>
<!-- p8&#45;&gt;p9 -->
<g id="edge13" class="edge"><title>p8&#45;&gt;p9</title>
<path fill="none" stroke="black" d="M221.6,-260.799C221.6,-244.606 221.6,-220.708 221.6,-206.036"/>
<polygon fill="black" stroke="black" points="225.1,-205.64 221.6,-195.64 218.1,-205.64 225.1,-205.64"/>
<text text-anchor="middle" x="259.1" y="-231.8" font-family="Times,serif" font-size="14.00">fastqc_results</text>
</g>
<!-- p10 -->
<g id="node15" class="node"><title>p10</title>
<ellipse fill="none" stroke="black" cx="243.6" cy="-105" rx="42.4939" ry="18"/>
<text text-anchor="middle" x="243.6" y="-101.3" font-family="Times,serif" font-size="14.00">multiQC</text>
</g>
<!-- p9&#45;&gt;p10 -->
<g id="edge14" class="edge"><title>p9&#45;&gt;p10</title>
<path fill="none" stroke="black" d="M222.235,-188.548C224.332,-180.444 231.214,-153.856 236.607,-133.019"/>
<polygon fill="black" stroke="black" points="240.065,-133.625 239.183,-123.067 233.289,-131.871 240.065,-133.625"/>
</g>
<!-- p23 -->
<g id="node16" class="node"><title>p23</title>
<ellipse fill="none" stroke="black" cx="435.6" cy="-18" rx="119.679" ry="18"/>
<text text-anchor="middle" x="435.6" y="-14.3" font-family="Times,serif" font-size="14.00">MOCK_generateReportMatter</text>
</g>
<!-- p10&#45;&gt;p23 -->
<g id="edge15" class="edge"><title>p10&#45;&gt;p23</title>
<path fill="none" stroke="black" d="M272.806,-91.7877C286.481,-85.6235 302.766,-77.6283 316.6,-69 325.729,-63.3062 326.171,-59.1815 335.6,-54 347.097,-47.6821 359.949,-42.1679 372.51,-37.5001"/>
<polygon fill="black" stroke="black" points="373.793,-40.7585 382.031,-34.0962 371.436,-34.1671 373.793,-40.7585"/>
<text text-anchor="middle" x="376.6" y="-57.8" font-family="Times,serif" font-size="14.00">multiqc_report</text>
</g>
<!-- p10&#45;&gt;p23 -->
<g id="edge16" class="edge"><title>p10&#45;&gt;p23</title>
<path fill="none" stroke="black" d="M237.111,-86.8464C234.296,-76.2184 233.123,-62.9381 240.6,-54 251.619,-40.8273 283.713,-32.6057 318.764,-27.477"/>
<polygon fill="black" stroke="black" points="319.283,-30.9387 328.714,-26.1109 318.331,-24.0038 319.283,-30.9387"/>
<text text-anchor="middle" x="276.6" y="-57.8" font-family="Times,serif" font-size="14.00">multiqc_data</text>
</g>
<!-- p16 -->
<g id="node18" class="node"><title>p16</title>
<ellipse fill="none" stroke="black" cx="383.6" cy="-410" rx="94.7833" ry="18"/>
<text text-anchor="middle" x="383.6" y="-406.3" font-family="Times,serif" font-size="14.00">extractStatsFromBAMs</text>
</g>
<!-- p15&#45;&gt;p16 -->
<g id="edge21" class="edge"><title>p15&#45;&gt;p16</title>
<path fill="none" stroke="black" d="M383.6,-464.775C383.6,-459.83 383.6,-448.897 383.6,-438.171"/>
<polygon fill="black" stroke="black" points="387.1,-438.153 383.6,-428.153 380.1,-438.153 387.1,-438.153"/>
</g>
<!-- p17 -->
<g id="node19" class="node"><title>p17</title>
<ellipse fill="none" stroke="black" cx="367.6" cy="-337.5" rx="3.5" ry="3.5"/>
<text text-anchor="middle" x="345.6" y="-344.8" font-family="Times,serif" font-size="14.00">collect</text>
</g>
<!-- p16&#45;&gt;p17 -->
<g id="edge22" class="edge"><title>p16&#45;&gt;p17</title>
<path fill="none" stroke="black" d="M372.724,-391.834C369.82,-386.348 367.079,-380.11 365.6,-374 363.785,-366.5 364.219,-357.861 365.139,-350.982"/>
<polygon fill="black" stroke="black" points="368.584,-351.597 366.938,-341.13 361.698,-350.339 368.584,-351.597"/>
<text text-anchor="middle" x="391.1" y="-362.8" font-family="Times,serif" font-size="14.00">statsFiles</text>
</g>
<!-- p18 -->
<g id="node20" class="node"><title>p18</title>
<ellipse fill="none" stroke="black" cx="424.6" cy="-337.5" rx="3.5" ry="3.5"/>
<text text-anchor="middle" x="410.1" y="-344.8" font-family="Times,serif" font-size="14.00">first</text>
</g>
<!-- p16&#45;&gt;p18 -->
<g id="edge23" class="edge"><title>p16&#45;&gt;p18</title>
<path fill="none" stroke="black" d="M402.78,-392.307C407.944,-386.932 413.07,-380.636 416.6,-374 420.308,-367.028 422.303,-358.4 423.373,-351.397"/>
<polygon fill="black" stroke="black" points="426.874,-351.57 424.471,-341.252 419.915,-350.817 426.874,-351.57"/>
<text text-anchor="middle" x="445.6" y="-362.8" font-family="Times,serif" font-size="14.00">longtags</text>
</g>
<!-- p19 -->
<g id="node21" class="node"><title>p19</title>
<ellipse fill="none" stroke="black" cx="388.6" cy="-279" rx="58.4896" ry="18"/>
<text text-anchor="middle" x="388.6" y="-275.3" font-family="Times,serif" font-size="14.00">combineStats</text>
</g>
<!-- p17&#45;&gt;p19 -->
<g id="edge24" class="edge"><title>p17&#45;&gt;p19</title>
<path fill="none" stroke="black" d="M368.502,-334.072C370.312,-329.204 374.565,-317.761 378.695,-306.649"/>
<polygon fill="black" stroke="black" points="382.025,-307.736 382.228,-297.144 375.463,-305.298 382.025,-307.736"/>
</g>
<!-- p18&#45;&gt;p19 -->
<g id="edge25" class="edge"><title>p18&#45;&gt;p19</title>
<path fill="none" stroke="black" d="M423.053,-334.072C419.836,-329.023 412.112,-316.9 404.791,-305.411"/>
<polygon fill="black" stroke="black" points="407.678,-303.428 399.352,-296.875 401.774,-307.19 407.678,-303.428"/>
</g>
<!-- p19&#45;&gt;p23 -->
<g id="edge27" class="edge"><title>p19&#45;&gt;p23</title>
<path fill="none" stroke="black" d="M427.686,-265.428C437.895,-260.169 447.685,-252.903 453.6,-243 490.906,-180.542 464.313,-90.2223 447.117,-45.7707"/>
<polygon fill="black" stroke="black" points="450.272,-44.2342 443.304,-36.2528 443.774,-46.8373 450.272,-44.2342"/>
<text text-anchor="middle" x="513.6" y="-144.8" font-family="Times,serif" font-size="14.00">allStatsForDoc</text>
</g>
<!-- p20 -->
<g id="node22" class="node"><title>p20</title>
<ellipse fill="none" stroke="black" cx="341.6" cy="-192" rx="98.2828" ry="18"/>
<text text-anchor="middle" x="341.6" y="-188.3" font-family="Times,serif" font-size="14.00">MOCK_generateFigures</text>
</g>
<!-- p19&#45;&gt;p20 -->
<g id="edge26" class="edge"><title>p19&#45;&gt;p20</title>
<path fill="none" stroke="black" d="M379.314,-261.207C372.663,-249.178 363.578,-232.748 355.992,-219.028"/>
<polygon fill="black" stroke="black" points="358.929,-217.107 351.027,-210.049 352.803,-220.494 358.929,-217.107"/>
<text text-anchor="middle" x="409.6" y="-231.8" font-family="Times,serif" font-size="14.00">allStatsForFigs</text>
</g>
<!-- p21 -->
<g id="node23" class="node"><title>p21</title>
<ellipse fill="none" stroke="black" cx="404.6" cy="-105" rx="3.5" ry="3.5"/>
<text text-anchor="middle" x="382.6" y="-112.3" font-family="Times,serif" font-size="14.00">collect</text>
</g>
<!-- p20&#45;&gt;p21 -->
<g id="edge28" class="edge"><title>p20&#45;&gt;p21</title>
<path fill="none" stroke="black" d="M354.349,-173.799C367.07,-156.635 386.206,-130.817 396.817,-116.501"/>
<polygon fill="black" stroke="black" points="399.878,-118.248 403.021,-108.13 394.255,-114.08 399.878,-118.248"/>
<text text-anchor="middle" x="396.6" y="-144.8" font-family="Times,serif" font-size="14.00">figures</text>
</g>
<!-- p21&#45;&gt;p23 -->
<g id="edge29" class="edge"><title>p21&#45;&gt;p23</title>
<path fill="none" stroke="black" d="M405.997,-101.522C409.128,-95.8888 416.808,-81.6321 421.6,-69 424.37,-61.699 426.868,-53.6139 428.961,-46.1115"/>
<polygon fill="black" stroke="black" points="432.364,-46.934 431.553,-36.3703 425.599,-45.1345 432.364,-46.934"/>
</g>
<!-- p22 -->
<g id="node24" class="node"><title>p22</title>
<ellipse fill="black" stroke="black" cx="500.6" cy="-105" rx="3.6" ry="3.6"/>
</g>
<!-- p22&#45;&gt;p23 -->
<g id="edge30" class="edge"><title>p22&#45;&gt;p23</title>
<path fill="none" stroke="black" d="M499.831,-101.041C497.606,-92.8919 490.555,-69.691 478.6,-54 475.472,-49.8941 471.767,-45.9726 467.865,-42.3384"/>
<polygon fill="black" stroke="black" points="470.073,-39.6202 460.218,-35.7308 465.496,-44.9171 470.073,-39.6202"/>
<text text-anchor="middle" x="515.6" y="-57.8" font-family="Times,serif" font-size="14.00">docheader</text>
</g>
</g>
</svg>
