<?xml version="1.0" encoding="UTF-8" standalone="no"?>
<!DOCTYPE svg PUBLIC "-//W3C//DTD SVG 1.1//EN"
 "http://www.w3.org/Graphics/SVG/1.1/DTD/svg11.dtd">
<!-- Generated by graphviz version 2.28.0 (20161014.1527)
 -->
<!-- Title: flowchart Pages: 1 -->
<svg width="460pt" height="558pt"
 viewBox="0.00 0.00 459.62 558.00" xmlns="http://www.w3.org/2000/svg" xmlns:xlink="http://www.w3.org/1999/xlink">
<g id="graph1" class="graph" transform="scale(1 1) rotate(0) translate(4 554)">
<title>flowchart</title>
<polygon fill="white" stroke="white" points="-4,5 -4,-554 456.619,-554 456.619,5 -4,5"/>
<!-- p0 -->
<g id="node1" class="node"><title>p0</title>
<ellipse fill="black" stroke="black" cx="204.619" cy="-546" rx="3.6" ry="3.6"/>
</g>
<!-- p2 -->
<g id="node2" class="node"><title>p2</title>
<ellipse fill="none" stroke="black" cx="223.619" cy="-472" rx="42.3701" ry="18"/>
<text text-anchor="middle" x="223.619" y="-468.3" font-family="Times,serif" font-size="14.00">fetchRef</text>
</g>
<!-- p0&#45;&gt;p2 -->
<g id="edge2" class="edge"><title>p0&#45;&gt;p2</title>
<path fill="none" stroke="black" d="M204.284,-542.25C203.613,-536.03 202.427,-520.449 205.619,-508 206.409,-504.922 207.505,-501.808 208.771,-498.772"/>
<polygon fill="black" stroke="black" points="212.059,-500.01 213.224,-489.48 205.746,-496.985 212.059,-500.01"/>
<text text-anchor="middle" x="213.619" y="-512.3" font-family="Times,serif" font-size="14.00">url</text>
</g>
<!-- p14 -->
<g id="node6" class="node"><title>p14</title>
<ellipse fill="none" stroke="black" cx="372.619" cy="-384" rx="53.4184" ry="18"/>
<text text-anchor="middle" x="372.619" y="-380.3" font-family="Times,serif" font-size="14.00">kangaIndex</text>
</g>
<!-- p2&#45;&gt;p14 -->
<g id="edge6" class="edge"><title>p2&#45;&gt;p14</title>
<path fill="none" stroke="black" d="M254.866,-459.771C270.545,-453.617 289.565,-445.342 305.619,-436 319.786,-427.756 334.396,-416.95 346.343,-407.408"/>
<polygon fill="black" stroke="black" points="348.606,-410.079 354.151,-401.051 344.186,-404.651 348.606,-410.079"/>
<text text-anchor="middle" x="359.619" y="-424.3" font-family="Times,serif" font-size="14.00">kangaRefs</text>
</g>
<!-- p10 -->
<g id="node8" class="node"><title>p10</title>
<ellipse fill="none" stroke="black" cx="63.6195" cy="-384" rx="52.4675" ry="18"/>
<text text-anchor="middle" x="63.6195" y="-380.3" font-family="Times,serif" font-size="14.00">hisat2Index</text>
</g>
<!-- p2&#45;&gt;p10 -->
<g id="edge8" class="edge"><title>p2&#45;&gt;p10</title>
<path fill="none" stroke="black" d="M197.784,-457.659C185.314,-451.18 170.156,-443.247 156.619,-436 137.58,-425.808 116.466,-414.25 99.175,-404.717"/>
<polygon fill="black" stroke="black" points="100.446,-401.421 89.9996,-399.651 97.0621,-407.549 100.446,-401.421"/>
<text text-anchor="middle" x="185.619" y="-424.3" font-family="Times,serif" font-size="14.00">hisat2Refs</text>
</g>
<!-- p4 -->
<g id="node10" class="node"><title>p4</title>
<ellipse fill="none" stroke="black" cx="214.619" cy="-384" rx="69.3156" ry="18"/>
<text text-anchor="middle" x="214.619" y="-380.3" font-family="Times,serif" font-size="14.00">kangaSimReads</text>
</g>
<!-- p2&#45;&gt;p4 -->
<g id="edge10" class="edge"><title>p2&#45;&gt;p4</title>
<path fill="none" stroke="black" d="M221.841,-454.009C220.604,-442.19 218.928,-426.171 217.502,-412.542"/>
<polygon fill="black" stroke="black" points="220.947,-411.831 216.425,-402.25 213.985,-412.56 220.947,-411.831"/>
<text text-anchor="middle" x="261.119" y="-424.3" font-family="Times,serif" font-size="14.00">simReadsRefs</text>
</g>
<!-- p1 -->
<g id="node4" class="node"><title>p1</title>
<ellipse fill="black" stroke="black" cx="243.619" cy="-546" rx="3.6" ry="3.6"/>
</g>
<!-- p1&#45;&gt;p2 -->
<g id="edge4" class="edge"><title>p1&#45;&gt;p2</title>
<path fill="none" stroke="black" d="M242.86,-542.265C240.922,-535.288 235.625,-516.219 231.078,-499.852"/>
<polygon fill="black" stroke="black" points="234.43,-498.841 228.381,-490.143 227.686,-500.715 234.43,-498.841"/>
<text text-anchor="middle" x="254.119" y="-512.3" font-family="Times,serif" font-size="14.00">name</text>
</g>
<!-- p15 -->
<g id="node14" class="node"><title>p15</title>
<ellipse fill="none" stroke="black" cx="379.619" cy="-296" rx="53.4184" ry="18"/>
<text text-anchor="middle" x="379.619" y="-292.3" font-family="Times,serif" font-size="14.00">kangaAlign</text>
</g>
<!-- p14&#45;&gt;p15 -->
<g id="edge36" class="edge"><title>p14&#45;&gt;p15</title>
<path fill="none" stroke="black" d="M374.036,-365.597C375.001,-353.746 376.297,-337.817 377.398,-324.292"/>
<polygon fill="black" stroke="black" points="380.906,-324.335 378.229,-314.084 373.929,-323.767 380.906,-324.335"/>
<text text-anchor="middle" x="404.619" y="-336.3" font-family="Times,serif" font-size="14.00">kangadbs</text>
</g>
<!-- p11 -->
<g id="node16" class="node"><title>p11</title>
<ellipse fill="none" stroke="black" cx="57.6195" cy="-296" rx="52.4675" ry="18"/>
<text text-anchor="middle" x="57.6195" y="-292.3" font-family="Times,serif" font-size="14.00">hisat2Align</text>
</g>
<!-- p10&#45;&gt;p11 -->
<g id="edge28" class="edge"><title>p10&#45;&gt;p11</title>
<path fill="none" stroke="black" d="M58.3531,-366.077C56.8301,-360.391 55.3755,-353.975 54.6195,-348 53.6398,-340.257 53.6882,-331.81 54.1736,-324.06"/>
<polygon fill="black" stroke="black" points="57.6641,-324.32 55.0508,-314.053 50.6908,-323.709 57.6641,-324.32"/>
<text text-anchor="middle" x="80.6195" y="-336.3" font-family="Times,serif" font-size="14.00">hisat2dbs</text>
</g>
<!-- p4&#45;&gt;p15 -->
<g id="edge14" class="edge"><title>p4&#45;&gt;p15</title>
<path fill="none" stroke="black" d="M241.996,-367.401C252.526,-361.372 264.65,-354.397 275.619,-348 287.669,-340.973 290.252,-338.451 302.619,-332 314.125,-325.998 326.864,-319.969 338.612,-314.647"/>
<polygon fill="black" stroke="black" points="340.082,-317.824 347.78,-310.544 337.222,-311.435 340.082,-317.824"/>
<text text-anchor="middle" x="337.119" y="-336.3" font-family="Times,serif" font-size="14.00">kangaReads</text>
</g>
<!-- p4&#45;&gt;p11 -->
<g id="edge16" class="edge"><title>p4&#45;&gt;p11</title>
<path fill="none" stroke="black" d="M184.82,-367.71C173.168,-361.66 159.722,-354.588 147.619,-348 129.12,-337.93 108.681,-326.383 91.9628,-316.825"/>
<polygon fill="black" stroke="black" points="93.5101,-313.678 83.0936,-311.742 90.0294,-319.751 93.5101,-313.678"/>
<text text-anchor="middle" x="179.119" y="-336.3" font-family="Times,serif" font-size="14.00">hisat2reads</text>
</g>
<!-- p5 -->
<g id="node18" class="node"><title>p5</title>
<ellipse fill="none" stroke="black" cx="214.619" cy="-296" rx="83.2892" ry="18"/>
<text text-anchor="middle" x="214.619" y="-292.3" font-family="Times,serif" font-size="14.00">fasta2mockFASTQ</text>
</g>
<!-- p4&#45;&gt;p5 -->
<g id="edge18" class="edge"><title>p4&#45;&gt;p5</title>
<path fill="none" stroke="black" d="M214.619,-365.597C214.619,-353.746 214.619,-337.817 214.619,-324.292"/>
<polygon fill="black" stroke="black" points="218.12,-324.084 214.619,-314.084 211.12,-324.084 218.12,-324.084"/>
<text text-anchor="middle" x="244.619" y="-336.3" font-family="Times,serif" font-size="14.00">fa2fqreads</text>
</g>
<!-- p3 -->
<g id="node12" class="node"><title>p3</title>
<ellipse fill="black" stroke="black" cx="3.61949" cy="-472" rx="3.6" ry="3.6"/>
</g>
<!-- p3&#45;&gt;p4 -->
<g id="edge12" class="edge"><title>p3&#45;&gt;p4</title>
<path fill="none" stroke="black" d="M2.86358,-468.213C0.736727,-459.687 -4.33704,-433.706 8.61949,-420 26.5396,-401.043 98.9107,-406.421 124.619,-402 133.159,-400.531 142.141,-398.918 150.99,-397.287"/>
<polygon fill="black" stroke="black" points="151.702,-400.715 160.894,-395.446 150.423,-393.833 151.702,-400.715"/>
<text text-anchor="middle" x="66.6195" y="-424.3" font-family="Times,serif" font-size="14.00">__$eachinparam&lt;1&gt;</text>
</g>
<!-- p16 -->
<g id="node35" class="node"><title>p16</title>
<ellipse fill="black" stroke="black" cx="379.619" cy="-208" rx="1.8" ry="1.8"/>
</g>
<!-- p15&#45;&gt;p16 -->
<g id="edge38" class="edge"><title>p15&#45;&gt;p16</title>
<path fill="none" stroke="black" d="M379.619,-277.597C379.619,-260.516 379.619,-234.965 379.619,-220.348"/>
<polygon fill="black" stroke="black" points="383.12,-220.095 379.619,-210.095 376.12,-220.095 383.12,-220.095"/>
<text text-anchor="middle" x="415.619" y="-248.3" font-family="Times,serif" font-size="14.00">kangaBAMs</text>
</g>
<!-- p12 -->
<g id="node29" class="node"><title>p12</title>
<ellipse fill="none" stroke="black" cx="81.6195" cy="-208" rx="45.244" ry="18"/>
<text text-anchor="middle" x="81.6195" y="-204.3" font-family="Times,serif" font-size="14.00">sam2bam</text>
</g>
<!-- p11&#45;&gt;p12 -->
<g id="edge30" class="edge"><title>p11&#45;&gt;p12</title>
<path fill="none" stroke="black" d="M50.09,-277.992C46.6941,-267.845 44.3058,-254.863 48.6195,-244 50.2945,-239.782 52.7454,-235.777 55.5673,-232.086"/>
<polygon fill="black" stroke="black" points="58.2196,-234.37 62.1805,-224.543 52.9561,-229.755 58.2196,-234.37"/>
<text text-anchor="middle" x="75.6195" y="-248.3" font-family="Times,serif" font-size="14.00">samname</text>
</g>
<!-- p11&#45;&gt;p12 -->
<g id="edge32" class="edge"><title>p11&#45;&gt;p12</title>
<path fill="none" stroke="black" d="M84.4359,-280.383C91.682,-275 98.6189,-268.18 102.619,-260 106.698,-251.662 104.676,-242.326 100.59,-233.943"/>
<polygon fill="black" stroke="black" points="103.61,-232.174 95.5361,-225.313 97.5694,-235.711 103.61,-232.174"/>
<text text-anchor="middle" x="117.119" y="-248.3" font-family="Times,serif" font-size="14.00">sam</text>
</g>
<!-- p6 -->
<g id="node20" class="node"><title>p6</title>
<ellipse fill="none" stroke="black" cx="214.619" cy="-208" rx="36.096" ry="18"/>
<text text-anchor="middle" x="214.619" y="-204.3" font-family="Times,serif" font-size="14.00">fastQC</text>
</g>
<!-- p5&#45;&gt;p6 -->
<g id="edge20" class="edge"><title>p5&#45;&gt;p6</title>
<path fill="none" stroke="black" d="M214.619,-277.597C214.619,-265.746 214.619,-249.817 214.619,-236.292"/>
<polygon fill="black" stroke="black" points="218.12,-236.084 214.619,-226.084 211.12,-236.084 218.12,-236.084"/>
<text text-anchor="middle" x="237.619" y="-248.3" font-family="Times,serif" font-size="14.00">FASTQ</text>
</g>
<!-- p7 -->
<g id="node22" class="node"><title>p7</title>
<ellipse fill="none" stroke="black" cx="214.619" cy="-134" rx="3.25" ry="3.5"/>
<text text-anchor="middle" x="787.619" y="-130.3" font-family="Times,serif" font-size="14.00">collect</text>
</g>
<!-- p6&#45;&gt;p7 -->
<g id="edge22" class="edge"><title>p6&#45;&gt;p7</title>
<path fill="none" stroke="black" d="M214.619,-189.937C214.619,-177.126 214.619,-159.843 214.619,-148.107"/>
<polygon fill="black" stroke="black" points="218.12,-147.748 214.619,-137.748 211.12,-147.748 218.12,-147.748"/>
<text text-anchor="middle" x="253.119" y="-160.3" font-family="Times,serif" font-size="14.00">fastqc_results</text>
</g>
<!-- p8 -->
<g id="node24" class="node"><title>p8</title>
<ellipse fill="none" stroke="black" cx="214.619" cy="-74" rx="42.3456" ry="18"/>
<text text-anchor="middle" x="214.619" y="-70.3" font-family="Times,serif" font-size="14.00">multiQC</text>
</g>
<!-- p7&#45;&gt;p8 -->
<g id="edge24" class="edge"><title>p7&#45;&gt;p8</title>
<path fill="none" stroke="black" d="M214.619,-130.203C214.619,-125.005 214.619,-113.361 214.619,-102.101"/>
<polygon fill="black" stroke="black" points="218.12,-102.064 214.619,-92.0638 211.12,-102.064 218.12,-102.064"/>
</g>
<!-- p9 -->
<g id="node26" class="node"><title>p9</title>
<ellipse fill="black" stroke="black" cx="214.619" cy="-2" rx="1.8" ry="1.8"/>
</g>
<!-- p8&#45;&gt;p9 -->
<g id="edge26" class="edge"><title>p8&#45;&gt;p9</title>
<path fill="none" stroke="black" d="M214.619,-55.6966C214.619,-42.6347 214.619,-25.1104 214.619,-13.9338"/>
<polygon fill="black" stroke="black" points="218.12,-13.8073 214.619,-3.8073 211.12,-13.8073 218.12,-13.8073"/>
<text text-anchor="middle" x="257.119" y="-26.3" font-family="Times,serif" font-size="14.00">multiqc_report</text>
</g>
<!-- p13 -->
<g id="node32" class="node"><title>p13</title>
<ellipse fill="black" stroke="black" cx="81.6195" cy="-134" rx="1.8" ry="1.8"/>
</g>
<!-- p12&#45;&gt;p13 -->
<g id="edge34" class="edge"><title>p12&#45;&gt;p13</title>
<path fill="none" stroke="black" d="M81.6195,-189.937C81.6195,-176.37 81.6195,-157.787 81.6195,-146.089"/>
<polygon fill="black" stroke="black" points="85.1196,-145.849 81.6195,-135.849 78.1196,-145.849 85.1196,-145.849"/>
<text text-anchor="middle" x="100.619" y="-160.3" font-family="Times,serif" font-size="14.00">BAMs</text>
</g>
</g>
</svg>
