<?xml version="1.0" encoding="UTF-8" standalone="no"?>
<!DOCTYPE svg PUBLIC "-//W3C//DTD SVG 1.1//EN"
 "http://www.w3.org/Graphics/SVG/1.1/DTD/svg11.dtd">
<!-- Generated by graphviz version 2.38.0 (20140413.2041)
 -->
<!-- Title: flowchart Pages: 1 -->
<svg width="497pt" height="592pt"
 viewBox="0.00 0.00 497.29 591.80" xmlns="http://www.w3.org/2000/svg" xmlns:xlink="http://www.w3.org/1999/xlink">
<g id="graph0" class="graph" transform="scale(1 1) rotate(0) translate(4 587.8)">
<title>flowchart</title>
<polygon fill="white" stroke="none" points="-4,4 -4,-587.8 493.288,-587.8 493.288,4 -4,4"/>
<!-- p0 -->
<g id="node1" class="node"><title>p0</title>
<ellipse fill="black" stroke="black" cx="307.293" cy="-580.2" rx="3.6" ry="3.6"/>
</g>
<!-- p2 -->
<g id="node2" class="node"><title>p2</title>
<ellipse fill="none" stroke="black" cx="326.293" cy="-507.6" rx="40.8928" ry="18"/>
<text text-anchor="middle" x="326.293" y="-503.9" font-family="Times,serif" font-size="14.00">fetchRef</text>
</g>
<!-- p0&#45;&gt;p2 -->
<g id="edge1" class="edge"><title>p0&#45;&gt;p2</title>
<path fill="none" stroke="black" d="M306.974,-576.554C306.336,-570.568 305.215,-555.577 308.293,-543.6 309.084,-540.523 310.181,-537.409 311.448,-534.373"/>
<polygon fill="black" stroke="black" points="314.735,-535.611 315.902,-525.081 308.423,-532.585 314.735,-535.611"/>
<text text-anchor="middle" x="316.293" y="-547.4" font-family="Times,serif" font-size="14.00">url</text>
</g>
<!-- p12 -->
<g id="node4" class="node"><title>p12</title>
<ellipse fill="none" stroke="black" cx="315.293" cy="-420.6" rx="51.9908" ry="18"/>
<text text-anchor="middle" x="315.293" y="-416.9" font-family="Times,serif" font-size="14.00">kangaIndex</text>
</g>
<!-- p2&#45;&gt;p12 -->
<g id="edge3" class="edge"><title>p2&#45;&gt;p12</title>
<path fill="none" stroke="black" d="M324.067,-489.399C322.561,-477.763 320.54,-462.148 318.818,-448.837"/>
<polygon fill="black" stroke="black" points="322.27,-448.244 317.516,-438.775 315.328,-449.142 322.27,-448.244"/>
<text text-anchor="middle" x="351.293" y="-460.4" font-family="Times,serif" font-size="14.00">kangaRefs</text>
</g>
<!-- p10 -->
<g id="node5" class="node"><title>p10</title>
<ellipse fill="none" stroke="black" cx="437.293" cy="-420.6" rx="51.9908" ry="18"/>
<text text-anchor="middle" x="437.293" y="-416.9" font-family="Times,serif" font-size="14.00">hisat2Index</text>
</g>
<!-- p2&#45;&gt;p10 -->
<g id="edge4" class="edge"><title>p2&#45;&gt;p10</title>
<path fill="none" stroke="black" d="M351.031,-493.234C361.613,-487.125 373.897,-479.496 384.293,-471.6 394.838,-463.59 405.622,-453.769 414.686,-444.959"/>
<polygon fill="black" stroke="black" points="417.212,-447.383 421.852,-437.858 412.285,-442.411 417.212,-447.383"/>
<text text-anchor="middle" x="432.293" y="-460.4" font-family="Times,serif" font-size="14.00">hisat2Refs</text>
</g>
<!-- p4 -->
<g id="node6" class="node"><title>p4</title>
<ellipse fill="none" stroke="black" cx="160.293" cy="-420.6" rx="67.6881" ry="18"/>
<text text-anchor="middle" x="160.293" y="-416.9" font-family="Times,serif" font-size="14.00">kangaSimReads</text>
</g>
<!-- p2&#45;&gt;p4 -->
<g id="edge5" class="edge"><title>p2&#45;&gt;p4</title>
<path fill="none" stroke="black" d="M294.725,-495.946C277.398,-489.664 255.747,-481.097 237.293,-471.6 221.482,-463.463 204.828,-452.922 191.069,-443.618"/>
<polygon fill="black" stroke="black" points="192.707,-440.498 182.483,-437.72 188.744,-446.267 192.707,-440.498"/>
<text text-anchor="middle" x="276.793" y="-460.4" font-family="Times,serif" font-size="14.00">simReadsRefs</text>
</g>
<!-- p1 -->
<g id="node3" class="node"><title>p1</title>
<ellipse fill="black" stroke="black" cx="346.293" cy="-580.2" rx="3.6" ry="3.6"/>
</g>
<!-- p1&#45;&gt;p2 -->
<g id="edge2" class="edge"><title>p1&#45;&gt;p2</title>
<path fill="none" stroke="black" d="M345.533,-576.519C343.625,-569.783 338.461,-551.555 333.964,-535.677"/>
<polygon fill="black" stroke="black" points="337.238,-534.394 331.145,-525.727 330.503,-536.302 337.238,-534.394"/>
<text text-anchor="middle" x="356.793" y="-547.4" font-family="Times,serif" font-size="14.00">name</text>
</g>
<!-- p13 -->
<g id="node8" class="node"><title>p13</title>
<ellipse fill="none" stroke="black" cx="265.293" cy="-333.6" rx="51.9908" ry="18"/>
<text text-anchor="middle" x="265.293" y="-329.9" font-family="Times,serif" font-size="14.00">kangaAlign</text>
</g>
<!-- p12&#45;&gt;p13 -->
<g id="edge16" class="edge"><title>p12&#45;&gt;p13</title>
<path fill="none" stroke="black" d="M317.285,-402.406C317.668,-392.273 316.721,-379.534 311.293,-369.6 308.457,-364.41 304.489,-359.755 300.06,-355.663"/>
<polygon fill="black" stroke="black" points="302.248,-352.931 292.29,-349.314 297.819,-358.351 302.248,-352.931"/>
<text text-anchor="middle" x="342.293" y="-373.4" font-family="Times,serif" font-size="14.00">kangadbs</text>
</g>
<!-- p11 -->
<g id="node9" class="node"><title>p11</title>
<ellipse fill="none" stroke="black" cx="387.293" cy="-333.6" rx="51.9908" ry="18"/>
<text text-anchor="middle" x="387.293" y="-329.9" font-family="Times,serif" font-size="14.00">hisat2Align</text>
</g>
<!-- p10&#45;&gt;p11 -->
<g id="edge14" class="edge"><title>p10&#45;&gt;p11</title>
<path fill="none" stroke="black" d="M427.415,-402.807C420.292,-390.699 410.548,-374.133 402.445,-360.359"/>
<polygon fill="black" stroke="black" points="405.238,-358.203 397.151,-351.358 399.204,-361.752 405.238,-358.203"/>
<text text-anchor="middle" x="441.293" y="-373.4" font-family="Times,serif" font-size="14.00">hisat2dbs</text>
</g>
<!-- p4&#45;&gt;p13 -->
<g id="edge7" class="edge"><title>p4&#45;&gt;p13</title>
<path fill="none" stroke="black" d="M155.997,-402.275C154.459,-391.844 154.513,-378.84 161.293,-369.6 171.845,-355.22 188.59,-346.677 205.585,-341.625"/>
<polygon fill="black" stroke="black" points="206.774,-344.933 215.576,-339.036 205.018,-338.156 206.774,-344.933"/>
<text text-anchor="middle" x="194.293" y="-373.4" font-family="Times,serif" font-size="14.00">kangaReads</text>
</g>
<!-- p4&#45;&gt;p11 -->
<g id="edge8" class="edge"><title>p4&#45;&gt;p11</title>
<path fill="none" stroke="black" d="M192.001,-404.571C203.393,-398.775 216.169,-391.807 227.293,-384.6 236.323,-378.75 236.581,-374.229 246.293,-369.6 279.191,-353.919 290.951,-360.495 326.293,-351.6 330.371,-350.574 334.592,-349.475 338.823,-348.347"/>
<polygon fill="black" stroke="black" points="339.91,-351.679 348.648,-345.687 338.081,-344.922 339.91,-351.679"/>
<text text-anchor="middle" x="276.793" y="-373.4" font-family="Times,serif" font-size="14.00">hisat2reads</text>
</g>
<!-- p5 -->
<g id="node10" class="node"><title>p5</title>
<ellipse fill="none" stroke="black" cx="79.293" cy="-333.6" rx="79.0865" ry="18"/>
<text text-anchor="middle" x="79.293" y="-329.9" font-family="Times,serif" font-size="14.00">fasta2mockFASTQ</text>
</g>
<!-- p4&#45;&gt;p5 -->
<g id="edge9" class="edge"><title>p4&#45;&gt;p5</title>
<path fill="none" stroke="black" d="M110.896,-408.136C98.9433,-402.946 87.5378,-395.439 80.293,-384.6 75.8648,-377.975 74.4833,-369.673 74.533,-361.749"/>
<polygon fill="black" stroke="black" points="78.0273,-361.956 75.287,-351.722 71.047,-361.431 78.0273,-361.956"/>
<text text-anchor="middle" x="109.293" y="-373.4" font-family="Times,serif" font-size="14.00">fa2fqreads</text>
</g>
<!-- p3 -->
<g id="node7" class="node"><title>p3</title>
<ellipse fill="black" stroke="black" cx="87.293" cy="-507.6" rx="3.6" ry="3.6"/>
</g>
<!-- p3&#45;&gt;p4 -->
<g id="edge6" class="edge"><title>p3&#45;&gt;p4</title>
<path fill="none" stroke="black" d="M86.4923,-504.051C84.1973,-496.219 78.3733,-472.105 88.293,-456.6 92.8691,-449.447 99.3616,-443.715 106.595,-439.133"/>
<polygon fill="black" stroke="black" points="108.315,-442.182 115.357,-434.266 104.916,-436.063 108.315,-442.182"/>
<text text-anchor="middle" x="145.293" y="-460.4" font-family="Times,serif" font-size="14.00">__$eachinparam&lt;1&gt;</text>
</g>
<!-- p14 -->
<g id="node15" class="node"><title>p14</title>
<ellipse fill="none" stroke="black" cx="271.293" cy="-246.6" rx="3.5" ry="3.5"/>
<text text-anchor="middle" x="256.793" y="-253.9" font-family="Times,serif" font-size="14.00">mix</text>
</g>
<!-- p13&#45;&gt;p14 -->
<g id="edge17" class="edge"><title>p13&#45;&gt;p14</title>
<path fill="none" stroke="black" d="M266.507,-315.399C267.65,-299.206 269.337,-275.308 270.373,-260.636"/>
<polygon fill="black" stroke="black" points="273.894,-260.462 271.107,-250.24 266.911,-259.969 273.894,-260.462"/>
<text text-anchor="middle" x="304.293" y="-286.4" font-family="Times,serif" font-size="14.00">kangaBAMs</text>
</g>
<!-- p11&#45;&gt;p14 -->
<g id="edge15" class="edge"><title>p11&#45;&gt;p14</title>
<path fill="none" stroke="black" d="M375.238,-315.752C367.098,-305.246 355.62,-291.987 343.293,-282.6 324.447,-268.249 298.781,-257.493 283.73,-251.906"/>
<polygon fill="black" stroke="black" points="284.863,-248.595 274.268,-248.564 282.531,-255.195 284.863,-248.595"/>
<text text-anchor="middle" x="395.293" y="-286.4" font-family="Times,serif" font-size="14.00">hisat2BAMs</text>
</g>
<!-- p6 -->
<g id="node11" class="node"><title>p6</title>
<ellipse fill="none" stroke="black" cx="79.293" cy="-246.6" rx="35.9954" ry="18"/>
<text text-anchor="middle" x="79.293" y="-242.9" font-family="Times,serif" font-size="14.00">fastQC</text>
</g>
<!-- p5&#45;&gt;p6 -->
<g id="edge10" class="edge"><title>p5&#45;&gt;p6</title>
<path fill="none" stroke="black" d="M79.293,-315.399C79.293,-303.763 79.293,-288.148 79.293,-274.837"/>
<polygon fill="black" stroke="black" points="82.7931,-274.775 79.293,-264.775 75.7931,-274.775 82.7931,-274.775"/>
<text text-anchor="middle" x="100.793" y="-286.4" font-family="Times,serif" font-size="14.00">FASTQ</text>
</g>
<!-- p7 -->
<g id="node12" class="node"><title>p7</title>
<ellipse fill="none" stroke="black" cx="79.293" cy="-159.6" rx="3.5" ry="3.5"/>
<text text-anchor="middle" x="57.293" y="-166.9" font-family="Times,serif" font-size="14.00">collect</text>
</g>
<!-- p6&#45;&gt;p7 -->
<g id="edge11" class="edge"><title>p6&#45;&gt;p7</title>
<path fill="none" stroke="black" d="M79.293,-228.399C79.293,-212.206 79.293,-188.308 79.293,-173.636"/>
<polygon fill="black" stroke="black" points="82.7931,-173.24 79.293,-163.24 75.7931,-173.24 82.7931,-173.24"/>
<text text-anchor="middle" x="116.793" y="-199.4" font-family="Times,serif" font-size="14.00">fastqc_results</text>
</g>
<!-- p8 -->
<g id="node13" class="node"><title>p8</title>
<ellipse fill="none" stroke="black" cx="79.293" cy="-72.6" rx="42.4939" ry="18"/>
<text text-anchor="middle" x="79.293" y="-68.9" font-family="Times,serif" font-size="14.00">multiQC</text>
</g>
<!-- p7&#45;&gt;p8 -->
<g id="edge12" class="edge"><title>p7&#45;&gt;p8</title>
<path fill="none" stroke="black" d="M79.293,-155.772C79.293,-147.284 79.293,-121.353 79.293,-100.865"/>
<polygon fill="black" stroke="black" points="82.7931,-100.769 79.293,-90.769 75.7931,-100.769 82.7931,-100.769"/>
</g>
<!-- p9 -->
<g id="node14" class="node"><title>p9</title>
<ellipse fill="black" stroke="black" cx="79.293" cy="-1.8" rx="1.8" ry="1.8"/>
</g>
<!-- p8&#45;&gt;p9 -->
<g id="edge13" class="edge"><title>p8&#45;&gt;p9</title>
<path fill="none" stroke="black" d="M79.293,-54.5933C79.293,-42.0587 79.293,-25.3431 79.293,-14.3356"/>
<polygon fill="black" stroke="black" points="82.7931,-14.1898 79.293,-4.18985 75.7931,-14.1899 82.7931,-14.1898"/>
<text text-anchor="middle" x="120.293" y="-25.4" font-family="Times,serif" font-size="14.00">multiqc_report</text>
</g>
<!-- p15 -->
<g id="node16" class="node"><title>p15</title>
<ellipse fill="none" stroke="black" cx="271.293" cy="-159.6" rx="126.178" ry="18"/>
<text text-anchor="middle" x="271.293" y="-155.9" font-family="Times,serif" font-size="14.00">MOCK_extractStatsFromBAMs</text>
</g>
<!-- p14&#45;&gt;p15 -->
<g id="edge18" class="edge"><title>p14&#45;&gt;p15</title>
<path fill="none" stroke="black" d="M271.293,-242.772C271.293,-234.284 271.293,-208.353 271.293,-187.865"/>
<polygon fill="black" stroke="black" points="274.793,-187.769 271.293,-177.769 267.793,-187.769 274.793,-187.769"/>
</g>
<!-- p16 -->
<g id="node17" class="node"><title>p16</title>
<ellipse fill="none" stroke="black" cx="271.293" cy="-72.6" rx="98.2828" ry="18"/>
<text text-anchor="middle" x="271.293" y="-68.9" font-family="Times,serif" font-size="14.00">MOCK_generateFigures</text>
</g>
<!-- p15&#45;&gt;p16 -->
<g id="edge19" class="edge"><title>p15&#45;&gt;p16</title>
<path fill="none" stroke="black" d="M271.293,-141.399C271.293,-129.763 271.293,-114.148 271.293,-100.837"/>
<polygon fill="black" stroke="black" points="274.793,-100.775 271.293,-90.7754 267.793,-100.775 274.793,-100.775"/>
<text text-anchor="middle" x="296.793" y="-112.4" font-family="Times,serif" font-size="14.00">statsFiles</text>
</g>
<!-- p17 -->
<g id="node18" class="node"><title>p17</title>
<ellipse fill="black" stroke="black" cx="271.293" cy="-1.8" rx="1.8" ry="1.8"/>
</g>
<!-- p16&#45;&gt;p17 -->
<g id="edge20" class="edge"><title>p16&#45;&gt;p17</title>
<path fill="none" stroke="black" d="M271.293,-54.5933C271.293,-42.0587 271.293,-25.3431 271.293,-14.3356"/>
<polygon fill="black" stroke="black" points="274.793,-14.1898 271.293,-4.18985 267.793,-14.1899 274.793,-14.1898"/>
<text text-anchor="middle" x="290.293" y="-25.4" font-family="Times,serif" font-size="14.00">figures</text>
</g>
</g>
</svg>
