<?xml version="1.0" encoding="UTF-8" standalone="no"?>
<!DOCTYPE svg PUBLIC "-//W3C//DTD SVG 1.1//EN"
 "http://www.w3.org/Graphics/SVG/1.1/DTD/svg11.dtd">
<!-- Generated by graphviz version 2.28.0 (20161014.1527)
 -->
<!-- Title: flowchart Pages: 1 -->
<svg width="271pt" height="368pt"
 viewBox="0.00 0.00 271.00 368.00" xmlns="http://www.w3.org/2000/svg" xmlns:xlink="http://www.w3.org/1999/xlink">
<g id="graph1" class="graph" transform="scale(1 1) rotate(0) translate(4 364)">
<title>flowchart</title>
<polygon fill="white" stroke="white" points="-4,5 -4,-364 268,-364 268,5 -4,5"/>
<!-- p0 -->
<g id="node1" class="node"><title>p0</title>
<ellipse fill="black" stroke="black" cx="139" cy="-356" rx="3.6" ry="3.6"/>
</g>
<!-- p1 -->
<g id="node2" class="node"><title>p1</title>
<ellipse fill="none" stroke="black" cx="139" cy="-282" rx="42.3701" ry="18"/>
<text text-anchor="middle" x="139" y="-278.3" font-family="Times,serif" font-size="14.00">fetchRef</text>
</g>
<!-- p0&#45;&gt;p1 -->
<g id="edge2" class="edge"><title>p0&#45;&gt;p1</title>
<path fill="none" stroke="black" d="M139,-352.265C139,-345.354 139,-326.578 139,-310.316"/>
<polygon fill="black" stroke="black" points="142.5,-310.143 139,-300.143 135.5,-310.143 142.5,-310.143"/>
<text text-anchor="middle" x="147" y="-322.3" font-family="Times,serif" font-size="14.00">url</text>
</g>
<!-- p2 -->
<g id="node4" class="node"><title>p2</title>
<ellipse fill="none" stroke="black" cx="69" cy="-194" rx="69.3156" ry="18"/>
<text text-anchor="middle" x="69" y="-190.3" font-family="Times,serif" font-size="14.00">kangaSimReads</text>
</g>
<!-- p1&#45;&gt;p2 -->
<g id="edge4" class="edge"><title>p1&#45;&gt;p2</title>
<path fill="none" stroke="black" d="M125.834,-264.824C115.504,-252.134 100.951,-234.254 89.1572,-219.765"/>
<polygon fill="black" stroke="black" points="91.6121,-217.236 82.5849,-211.69 86.1832,-221.655 91.6121,-217.236"/>
<text text-anchor="middle" x="122" y="-234.3" font-family="Times,serif" font-size="14.00">refs</text>
</g>
<!-- p3 -->
<g id="node9" class="node"><title>p3</title>
<ellipse fill="none" stroke="black" cx="210" cy="-194" rx="53.4184" ry="18"/>
<text text-anchor="middle" x="210" y="-190.3" font-family="Times,serif" font-size="14.00">kangaIndex</text>
</g>
<!-- p1&#45;&gt;p3 -->
<g id="edge10" class="edge"><title>p1&#45;&gt;p3</title>
<path fill="none" stroke="black" d="M152.355,-264.824C162.831,-252.134 177.593,-234.254 189.555,-219.765"/>
<polygon fill="black" stroke="black" points="192.554,-221.63 196.221,-211.69 187.155,-217.173 192.554,-221.63"/>
<text text-anchor="middle" x="191" y="-234.3" font-family="Times,serif" font-size="14.00">refs</text>
</g>
<!-- p4 -->
<g id="node6" class="node"><title>p4</title>
<ellipse fill="none" stroke="black" cx="120" cy="-106" rx="53.4184" ry="18"/>
<text text-anchor="middle" x="120" y="-102.3" font-family="Times,serif" font-size="14.00">kangaAlign</text>
</g>
<!-- p2&#45;&gt;p4 -->
<g id="edge6" class="edge"><title>p2&#45;&gt;p4</title>
<path fill="none" stroke="black" d="M44.8427,-176.947C32.9973,-167.029 22.8558,-153.954 31,-142 38.5984,-130.847 50.3438,-123.248 62.8367,-118.07"/>
<polygon fill="black" stroke="black" points="64.2776,-121.271 72.4796,-114.564 61.8856,-114.692 64.2776,-121.271"/>
<text text-anchor="middle" x="64.5" y="-146.3" font-family="Times,serif" font-size="14.00">simreadsR1</text>
</g>
<!-- p2&#45;&gt;p4 -->
<g id="edge8" class="edge"><title>p2&#45;&gt;p4</title>
<path fill="none" stroke="black" d="M84.4868,-176.29C89.1863,-170.724 94.1255,-164.325 98,-158 102.655,-150.4 106.816,-141.641 110.234,-133.549"/>
<polygon fill="black" stroke="black" points="113.536,-134.718 114.016,-124.134 107.041,-132.108 113.536,-134.718"/>
<text text-anchor="middle" x="139.5" y="-146.3" font-family="Times,serif" font-size="14.00">simreadsR2</text>
</g>
<!-- p5 -->
<g id="node12" class="node"><title>p5</title>
<ellipse fill="none" stroke="black" cx="120" cy="-18" rx="57.2688" ry="18"/>
<text text-anchor="middle" x="120" y="-14.3" font-family="Times,serif" font-size="14.00">bamReIndex</text>
</g>
<!-- p4&#45;&gt;p5 -->
<g id="edge14" class="edge"><title>p4&#45;&gt;p5</title>
<path fill="none" stroke="black" d="M120,-87.5966C120,-75.7459 120,-59.8169 120,-46.2917"/>
<polygon fill="black" stroke="black" points="123.5,-46.084 120,-36.084 116.5,-46.084 123.5,-46.084"/>
<text text-anchor="middle" x="135" y="-58.3" font-family="Times,serif" font-size="14.00">bams</text>
</g>
<!-- p3&#45;&gt;p4 -->
<g id="edge12" class="edge"><title>p3&#45;&gt;p4</title>
<path fill="none" stroke="black" d="M201.548,-176.019C195.678,-165.384 187.11,-151.874 177,-142 171.217,-136.352 164.365,-131.188 157.452,-126.662"/>
<polygon fill="black" stroke="black" points="159.087,-123.558 148.74,-121.282 155.409,-129.514 159.087,-123.558"/>
<text text-anchor="middle" x="196.5" y="-146.3" font-family="Times,serif" font-size="14.00">db</text>
</g>
</g>
</svg>
