<?xml version="1.0" encoding="UTF-8" standalone="no"?>
<!DOCTYPE svg PUBLIC "-//W3C//DTD SVG 1.1//EN"
 "http://www.w3.org/Graphics/SVG/1.1/DTD/svg11.dtd">
<!-- Generated by graphviz version 2.28.0 (20161014.1527)
 -->
<!-- Title: flowchart Pages: 1 -->
<svg width="544pt" height="558pt"
 viewBox="0.00 0.00 543.61 558.00" xmlns="http://www.w3.org/2000/svg" xmlns:xlink="http://www.w3.org/1999/xlink">
<g id="graph1" class="graph" transform="scale(1 1) rotate(0) translate(4 554)">
<title>flowchart</title>
<polygon fill="white" stroke="white" points="-4,5 -4,-554 540.612,-554 540.612,5 -4,5"/>
<!-- p0 -->
<g id="node1" class="node"><title>p0</title>
<ellipse fill="black" stroke="black" cx="279.612" cy="-546" rx="3.6" ry="3.6"/>
</g>
<!-- p1 -->
<g id="node2" class="node"><title>p1</title>
<ellipse fill="none" stroke="black" cx="279.612" cy="-472" rx="42.3701" ry="18"/>
<text text-anchor="middle" x="279.612" y="-468.3" font-family="Times,serif" font-size="14.00">fetchRef</text>
</g>
<!-- p0&#45;&gt;p1 -->
<g id="edge2" class="edge"><title>p0&#45;&gt;p1</title>
<path fill="none" stroke="black" d="M279.612,-542.265C279.612,-535.354 279.612,-516.578 279.612,-500.316"/>
<polygon fill="black" stroke="black" points="283.112,-500.143 279.612,-490.143 276.112,-500.143 283.112,-500.143"/>
<text text-anchor="middle" x="287.612" y="-512.3" font-family="Times,serif" font-size="14.00">url</text>
</g>
<!-- p3 -->
<g id="node4" class="node"><title>p3</title>
<ellipse fill="none" stroke="black" cx="255.612" cy="-384" rx="69.3156" ry="18"/>
<text text-anchor="middle" x="255.612" y="-380.3" font-family="Times,serif" font-size="14.00">kangaSimReads</text>
</g>
<!-- p1&#45;&gt;p3 -->
<g id="edge4" class="edge"><title>p1&#45;&gt;p3</title>
<path fill="none" stroke="black" d="M274.871,-454.009C271.539,-442.073 267.013,-425.853 263.185,-412.138"/>
<polygon fill="black" stroke="black" points="266.485,-410.941 260.426,-402.25 259.743,-412.823 266.485,-410.941"/>
<text text-anchor="middle" x="281.612" y="-424.3" font-family="Times,serif" font-size="14.00">refs</text>
</g>
<!-- p9 -->
<g id="node26" class="node"><title>p9</title>
<ellipse fill="none" stroke="black" cx="76.6121" cy="-384" rx="52.4675" ry="18"/>
<text text-anchor="middle" x="76.6121" y="-380.3" font-family="Times,serif" font-size="14.00">hisat2Index</text>
</g>
<!-- p1&#45;&gt;p9 -->
<g id="edge30" class="edge"><title>p1&#45;&gt;p9</title>
<path fill="none" stroke="black" d="M262.97,-455.291C250.125,-443.961 231.424,-429.116 212.612,-420 187.833,-407.992 158.448,-399.767 133.343,-394.324"/>
<polygon fill="black" stroke="black" points="133.736,-390.831 123.234,-392.231 132.316,-397.686 133.736,-390.831"/>
<text text-anchor="middle" x="249.612" y="-424.3" font-family="Times,serif" font-size="14.00">refs</text>
</g>
<!-- p13 -->
<g id="node33" class="node"><title>p13</title>
<ellipse fill="none" stroke="black" cx="467.612" cy="-384" rx="53.4184" ry="18"/>
<text text-anchor="middle" x="467.612" y="-380.3" font-family="Times,serif" font-size="14.00">kangaIndex</text>
</g>
<!-- p1&#45;&gt;p13 -->
<g id="edge38" class="edge"><title>p1&#45;&gt;p13</title>
<path fill="none" stroke="black" d="M307.352,-458.31C339.231,-443.728 391.796,-419.682 427.981,-403.129"/>
<polygon fill="black" stroke="black" points="429.625,-406.226 437.263,-398.883 426.713,-399.86 429.625,-406.226"/>
<text text-anchor="middle" x="401.612" y="-424.3" font-family="Times,serif" font-size="14.00">refs</text>
</g>
<!-- p14 -->
<g id="node8" class="node"><title>p14</title>
<ellipse fill="none" stroke="black" cx="432.612" cy="-296" rx="53.4184" ry="18"/>
<text text-anchor="middle" x="432.612" y="-292.3" font-family="Times,serif" font-size="14.00">kangaAlign</text>
</g>
<!-- p3&#45;&gt;p14 -->
<g id="edge8" class="edge"><title>p3&#45;&gt;p14</title>
<path fill="none" stroke="black" d="M324.219,-381.076C353.614,-377.063 386.626,-367.911 410.612,-348 418.052,-341.825 423.038,-332.663 426.352,-323.802"/>
<polygon fill="black" stroke="black" points="429.742,-324.691 429.425,-314.1 423.069,-322.577 429.742,-324.691"/>
<text text-anchor="middle" x="447.612" y="-336.3" font-family="Times,serif" font-size="14.00">kangaR1</text>
</g>
<!-- p3&#45;&gt;p14 -->
<g id="edge14" class="edge"><title>p3&#45;&gt;p14</title>
<path fill="none" stroke="black" d="M285.524,-367.541C305.551,-357.278 332.552,-343.61 356.612,-332 368.162,-326.427 380.784,-320.535 392.365,-315.207"/>
<polygon fill="black" stroke="black" points="394.168,-318.231 401.802,-310.884 391.253,-311.867 394.168,-318.231"/>
<text text-anchor="middle" x="381.612" y="-336.3" font-family="Times,serif" font-size="14.00">kangaR2</text>
</g>
<!-- p10 -->
<g id="node10" class="node"><title>p10</title>
<ellipse fill="none" stroke="black" cx="77.6121" cy="-296" rx="52.4675" ry="18"/>
<text text-anchor="middle" x="77.6121" y="-292.3" font-family="Times,serif" font-size="14.00">hisat2Align</text>
</g>
<!-- p3&#45;&gt;p10 -->
<g id="edge10" class="edge"><title>p3&#45;&gt;p10</title>
<path fill="none" stroke="black" d="M195.497,-374.881C147.224,-367.751 86.2584,-357.123 78.6121,-348 73.1118,-341.438 71.6236,-332.557 71.9015,-324.046"/>
<polygon fill="black" stroke="black" points="75.3897,-324.342 72.9654,-314.028 68.4289,-323.602 75.3897,-324.342"/>
<text text-anchor="middle" x="103.112" y="-336.3" font-family="Times,serif" font-size="14.00">hisat2R1</text>
</g>
<!-- p3&#45;&gt;p10 -->
<g id="edge16" class="edge"><title>p3&#45;&gt;p10</title>
<path fill="none" stroke="black" d="M215.6,-369.217C199.506,-363.26 180.931,-355.857 164.612,-348 145.845,-338.965 125.732,-327.313 109.577,-317.428"/>
<polygon fill="black" stroke="black" points="111.387,-314.432 101.042,-312.146 107.703,-320.385 111.387,-314.432"/>
<text text-anchor="middle" x="189.112" y="-336.3" font-family="Times,serif" font-size="14.00">hisat2R2</text>
</g>
<!-- p4 -->
<g id="node12" class="node"><title>p4</title>
<ellipse fill="none" stroke="black" cx="257.612" cy="-296" rx="83.2892" ry="18"/>
<text text-anchor="middle" x="257.612" y="-292.3" font-family="Times,serif" font-size="14.00">fasta2mockFASTQ</text>
</g>
<!-- p3&#45;&gt;p4 -->
<g id="edge12" class="edge"><title>p3&#45;&gt;p4</title>
<path fill="none" stroke="black" d="M263.346,-365.896C265.495,-360.309 267.534,-353.997 268.612,-348 270.038,-340.066 269.143,-331.484 267.368,-323.664"/>
<polygon fill="black" stroke="black" points="270.714,-322.63 264.65,-313.942 263.972,-324.515 270.714,-322.63"/>
<text text-anchor="middle" x="292.612" y="-336.3" font-family="Times,serif" font-size="14.00">fa2fqR1</text>
</g>
<!-- p3&#45;&gt;p4 -->
<g id="edge18" class="edge"><title>p3&#45;&gt;p4</title>
<path fill="none" stroke="black" d="M232.334,-366.64C221.871,-357.138 212.996,-344.587 218.612,-332 220.455,-327.869 223.054,-324.023 226.044,-320.506"/>
<polygon fill="black" stroke="black" points="228.563,-322.937 233.077,-313.352 223.571,-318.03 228.563,-322.937"/>
<text text-anchor="middle" x="241.612" y="-336.3" font-family="Times,serif" font-size="14.00">fa2fqR2</text>
</g>
<!-- p2 -->
<g id="node6" class="node"><title>p2</title>
<ellipse fill="black" stroke="black" cx="95.6121" cy="-472" rx="3.6" ry="3.6"/>
</g>
<!-- p2&#45;&gt;p3 -->
<g id="edge6" class="edge"><title>p2&#45;&gt;p3</title>
<path fill="none" stroke="black" d="M94.6355,-468.285C91.8339,-459.966 84.707,-434.517 96.6121,-420 102.739,-412.529 147.676,-403.055 188.219,-395.848"/>
<polygon fill="black" stroke="black" points="188.887,-399.285 198.134,-394.114 187.681,-392.389 188.887,-399.285"/>
<text text-anchor="middle" x="154.612" y="-424.3" font-family="Times,serif" font-size="14.00">__$eachinparam&lt;1&gt;</text>
</g>
<!-- p15 -->
<g id="node36" class="node"><title>p15</title>
<ellipse fill="none" stroke="black" cx="432.612" cy="-208" rx="57.2688" ry="18"/>
<text text-anchor="middle" x="432.612" y="-204.3" font-family="Times,serif" font-size="14.00">bamReIndex</text>
</g>
<!-- p14&#45;&gt;p15 -->
<g id="edge42" class="edge"><title>p14&#45;&gt;p15</title>
<path fill="none" stroke="black" d="M432.612,-277.597C432.612,-265.746 432.612,-249.817 432.612,-236.292"/>
<polygon fill="black" stroke="black" points="436.112,-236.084 432.612,-226.084 429.112,-236.084 436.112,-236.084"/>
<text text-anchor="middle" x="447.612" y="-248.3" font-family="Times,serif" font-size="14.00">bams</text>
</g>
<!-- p11 -->
<g id="node29" class="node"><title>p11</title>
<ellipse fill="none" stroke="black" cx="77.6121" cy="-208" rx="45.244" ry="18"/>
<text text-anchor="middle" x="77.6121" y="-204.3" font-family="Times,serif" font-size="14.00">sam2bam</text>
</g>
<!-- p10&#45;&gt;p11 -->
<g id="edge34" class="edge"><title>p10&#45;&gt;p11</title>
<path fill="none" stroke="black" d="M77.6121,-277.597C77.6121,-265.746 77.6121,-249.817 77.6121,-236.292"/>
<polygon fill="black" stroke="black" points="81.1122,-236.084 77.6121,-226.084 74.1122,-236.084 81.1122,-236.084"/>
<text text-anchor="middle" x="89.1121" y="-248.3" font-family="Times,serif" font-size="14.00">sam</text>
</g>
<!-- p5 -->
<g id="node17" class="node"><title>p5</title>
<ellipse fill="none" stroke="black" cx="197.612" cy="-208" rx="36.096" ry="18"/>
<text text-anchor="middle" x="197.612" y="-204.3" font-family="Times,serif" font-size="14.00">fastQC</text>
</g>
<!-- p4&#45;&gt;p5 -->
<g id="edge22" class="edge"><title>p4&#45;&gt;p5</title>
<path fill="none" stroke="black" d="M254.44,-277.829C251.917,-267.378 247.616,-254.135 240.612,-244 236.877,-238.595 232.078,-233.585 227.046,-229.142"/>
<polygon fill="black" stroke="black" points="229.036,-226.249 219.069,-222.654 224.619,-231.679 229.036,-226.249"/>
<text text-anchor="middle" x="276.112" y="-248.3" font-family="Times,serif" font-size="14.00">FASTQ2</text>
</g>
<!-- p4&#45;&gt;p5 -->
<g id="edge20" class="edge"><title>p4&#45;&gt;p5</title>
<path fill="none" stroke="black" d="M211.229,-280.843C201.859,-275.786 193.184,-269.015 187.612,-260 183.093,-252.688 183.322,-243.756 185.392,-235.421"/>
<polygon fill="black" stroke="black" points="188.79,-236.295 188.633,-225.701 182.149,-234.08 188.79,-236.295"/>
<text text-anchor="middle" x="214.112" y="-248.3" font-family="Times,serif" font-size="14.00">FASTQ1</text>
</g>
<!-- p6 -->
<g id="node20" class="node"><title>p6</title>
<ellipse fill="none" stroke="black" cx="197.612" cy="-134" rx="3.25" ry="3.5"/>
<text text-anchor="middle" x="770.612" y="-130.3" font-family="Times,serif" font-size="14.00">collect</text>
</g>
<!-- p5&#45;&gt;p6 -->
<g id="edge24" class="edge"><title>p5&#45;&gt;p6</title>
<path fill="none" stroke="black" d="M197.612,-189.937C197.612,-177.126 197.612,-159.843 197.612,-148.107"/>
<polygon fill="black" stroke="black" points="201.112,-147.748 197.612,-137.748 194.112,-147.748 201.112,-147.748"/>
<text text-anchor="middle" x="236.112" y="-160.3" font-family="Times,serif" font-size="14.00">fastqc_results</text>
</g>
<!-- p7 -->
<g id="node22" class="node"><title>p7</title>
<ellipse fill="none" stroke="black" cx="197.612" cy="-74" rx="42.3456" ry="18"/>
<text text-anchor="middle" x="197.612" y="-70.3" font-family="Times,serif" font-size="14.00">multiQC</text>
</g>
<!-- p6&#45;&gt;p7 -->
<g id="edge26" class="edge"><title>p6&#45;&gt;p7</title>
<path fill="none" stroke="black" d="M197.612,-130.203C197.612,-125.005 197.612,-113.361 197.612,-102.101"/>
<polygon fill="black" stroke="black" points="201.112,-102.064 197.612,-92.0638 194.112,-102.064 201.112,-102.064"/>
</g>
<!-- p8 -->
<g id="node24" class="node"><title>p8</title>
<ellipse fill="black" stroke="black" cx="197.612" cy="-2" rx="1.8" ry="1.8"/>
</g>
<!-- p7&#45;&gt;p8 -->
<g id="edge28" class="edge"><title>p7&#45;&gt;p8</title>
<path fill="none" stroke="black" d="M197.612,-55.6966C197.612,-42.6347 197.612,-25.1104 197.612,-13.9338"/>
<polygon fill="black" stroke="black" points="201.112,-13.8073 197.612,-3.8073 194.112,-13.8073 201.112,-13.8073"/>
<text text-anchor="middle" x="240.112" y="-26.3" font-family="Times,serif" font-size="14.00">multiqc_report</text>
</g>
<!-- p9&#45;&gt;p10 -->
<g id="edge32" class="edge"><title>p9&#45;&gt;p10</title>
<path fill="none" stroke="black" d="M37.1055,-371.971C14.3027,-363.437 -7.80199,-350.025 3.61214,-332 9.25871,-323.083 17.8568,-316.394 27.2188,-311.391"/>
<polygon fill="black" stroke="black" points="28.7978,-314.516 36.3574,-307.093 25.8186,-308.182 28.7978,-314.516"/>
<text text-anchor="middle" x="29.6121" y="-336.3" font-family="Times,serif" font-size="14.00">hisat2dbs</text>
</g>
<!-- p12 -->
<g id="node31" class="node"><title>p12</title>
<ellipse fill="black" stroke="black" cx="77.6121" cy="-134" rx="1.8" ry="1.8"/>
</g>
<!-- p11&#45;&gt;p12 -->
<g id="edge36" class="edge"><title>p11&#45;&gt;p12</title>
<path fill="none" stroke="black" d="M77.6121,-189.937C77.6121,-176.37 77.6121,-157.787 77.6121,-146.089"/>
<polygon fill="black" stroke="black" points="81.1122,-145.849 77.6121,-135.849 74.1122,-145.849 81.1122,-145.849"/>
<text text-anchor="middle" x="90.1121" y="-160.3" font-family="Times,serif" font-size="14.00">bam</text>
</g>
<!-- p13&#45;&gt;p14 -->
<g id="edge40" class="edge"><title>p13&#45;&gt;p14</title>
<path fill="none" stroke="black" d="M479.254,-366.324C484.887,-356.059 489.319,-342.838 483.612,-332 480.591,-326.263 476.159,-321.286 471.148,-317.028"/>
<polygon fill="black" stroke="black" points="473.036,-314.071 462.919,-310.925 468.866,-319.693 473.036,-314.071"/>
<text text-anchor="middle" x="511.112" y="-336.3" font-family="Times,serif" font-size="14.00">kangadb</text>
</g>
</g>
</svg>
